<?xml version="1.0" encoding="UTF-8" standalone="no"?>
<!-- Generator: Adobe Illustrator 26.0.3, SVG Export Plug-In . SVG Version: 6.00 Build 0)  -->

<svg
   version="1.1"
   id="Ebene_1"
   x="0px"
   y="0px"
   viewBox="0 0 536.46615 462.27408"
   xml:space="preserve"
   sodipodi:docname="MicW2Graph_logo.svg"
   inkscape:version="1.4 (e7c3feb100, 2024-10-09)"
   width="141.94mm"
   height="122.31mm"
   inkscape:export-filename="MicW2Graph_logo.png"
   inkscape:export-xdpi="500"
   inkscape:export-ydpi="500"
   xmlns:inkscape="http://www.inkscape.org/namespaces/inkscape"
   xmlns:sodipodi="http://sodipodi.sourceforge.net/DTD/sodipodi-0.dtd"
   xmlns:xlink="http://www.w3.org/1999/xlink"
   xmlns="http://www.w3.org/2000/svg"
   xmlns:svg="http://www.w3.org/2000/svg"><defs
   id="defs44604"><linearGradient
     id="swatch25"
     inkscape:swatch="solid"><stop
       style="stop-color:#326586;stop-opacity:1;"
       offset="0"
       id="stop25" /></linearGradient><linearGradient
     inkscape:collect="always"
     xlink:href="#A"
     id="linearGradient47"
     gradientUnits="userSpaceOnUse"
     gradientTransform="scale(1.356907,0.73697016)"
     x1="20.632954"
     y1="18.539421"
     x2="40.362381"
     y2="18.539421" /><linearGradient
     id="A"
     x1="0"
     y1="0.5"
     x2="1"
     y2="0.5"><stop
       offset="80.9%"
       stop-color="#bbb5aa"
       id="stop88055" /><stop
       offset="94.3%"
       stop-color="#98958c"
       id="stop88057" /><stop
       offset="100%"
       stop-color="#97948a"
       id="stop88059" /></linearGradient><linearGradient
     inkscape:collect="always"
     xlink:href="#B"
     id="linearGradient48"
     gradientUnits="userSpaceOnUse"
     gradientTransform="scale(0.40218732,2.4864036)"
     x1="66.2649"
     y1="5.055397"
     x2="70.641212"
     y2="5.055397" /><linearGradient
     id="B"
     x1="66.2649"
     y1="5.055397"
     x2="70.641212"
     y2="5.055397"
     gradientTransform="scale(0.40218732,2.4864036)"
     gradientUnits="userSpaceOnUse"><stop
       offset="0%"
       stop-color="#898a8b"
       id="stop88062" /><stop
       offset="22%"
       stop-color="#cbcbca"
       id="stop88064" /><stop
       offset="28.8%"
       stop-color="#cbcbca"
       id="stop88066" /><stop
       offset="100%"
       stop-color="#818383"
       id="stop88068" /></linearGradient><linearGradient
     inkscape:collect="always"
     xlink:href="#C"
     id="linearGradient49"
     gradientUnits="userSpaceOnUse"
     gradientTransform="scale(1.4020629,0.71323475)"
     x1="20.9188"
     y1="7.9130993"
     x2="21.377031"
     y2="9.8029804" /><linearGradient
     id="C"
     x1="0.4034"
     y1="0.1842"
     x2="0.51200002"
     y2="0.63209999"><stop
       offset="0%"
       stop-color="#898a8b"
       id="stop88071" /><stop
       offset="22%"
       stop-color="#cbcbca"
       id="stop88073" /><stop
       offset="28.8%"
       stop-color="#cbcbca"
       id="stop88075" /><stop
       offset="66.9%"
       stop-color="#a1a2a2"
       id="stop88077" /></linearGradient><linearGradient
     inkscape:collect="always"
     xlink:href="#A"
     id="linearGradient50"
     gradientUnits="userSpaceOnUse"
     gradientTransform="matrix(1.3568604,0,0,0.73699551,22.304572,5.8831426)"
     x1="5.3380585"
     y1="31.878756"
     x2="25.068165"
     y2="31.878756" /><linearGradient
     inkscape:collect="always"
     xlink:href="#A"
     id="linearGradient51"
     gradientUnits="userSpaceOnUse"
     gradientTransform="matrix(0.92275758,0,0,1.0837082,-36.597363,6.3002541)"
     x1="56.556564"
     y1="14.333655"
     x2="71.784836"
     y2="14.333655" /><linearGradient
     inkscape:collect="always"
     xlink:href="#D"
     id="linearGradient52"
     gradientUnits="userSpaceOnUse"
     gradientTransform="matrix(0.4022058,0,0,2.4862894,22.304572,5.8831426)"
     x1="15.203852"
     y1="8.8775902"
     x2="19.579529"
     y2="8.8775902" /><linearGradient
     id="D"
     x1="15.203852"
     y1="8.8775902"
     x2="19.579529"
     y2="8.8775902"
     gradientTransform="scale(0.4022058,2.4862894)"
     gradientUnits="userSpaceOnUse"><stop
       offset="0%"
       stop-color="#898a8b"
       id="stop88080" /><stop
       offset="22%"
       stop-color="#cbcbca"
       id="stop88082" /><stop
       offset="28.8%"
       stop-color="#cbcbca"
       id="stop88084" /><stop
       offset="100%"
       stop-color="#818383"
       id="stop88086" /></linearGradient><linearGradient
     inkscape:collect="always"
     xlink:href="#C"
     id="linearGradient53"
     gradientUnits="userSpaceOnUse"
     gradientTransform="matrix(1.4020629,0,0,0.71323475,22.304572,5.8831426)"
     x1="6.271812"
     y1="21.236902"
     x2="6.7300415"
     y2="23.126783" /></defs><sodipodi:namedview
   id="namedview44602"
   pagecolor="#ffffff"
   bordercolor="#000000"
   borderopacity="0.25"
   inkscape:showpageshadow="2"
   inkscape:pageopacity="0.0"
   inkscape:pagecheckerboard="0"
   inkscape:deskcolor="#d1d1d1"
   showgrid="false"
   inkscape:zoom="1.1534462"
   inkscape:cx="248.81957"
   inkscape:cy="213.27392"
   inkscape:window-width="1920"
   inkscape:window-height="970"
   inkscape:window-x="0"
   inkscape:window-y="0"
   inkscape:window-maximized="1"
   inkscape:current-layer="layer2"
   inkscape:document-units="cm" />



<g
   inkscape:groupmode="layer"
   id="layer1"
   inkscape:label="Layer 2"><path
     d="M 356.85979,292.76482 114.9492,345.79422 4.252218,176.13405 217.92725,133.93883 l 48.40001,26.1103 z"
     fill="#5e5f59"
     id="path1"
     style="fill:#808080;fill-rule:evenodd;stroke:#808080;stroke-width:5.5017;stroke-linecap:round;stroke-linejoin:round;stroke-opacity:1" /></g><g
   inkscape:groupmode="layer"
   id="layer2"
   inkscape:label="Layer 1"><g
     id="g44599"
     transform="translate(1.1207108,4.3295833)">
	
	<g
   id="g44551"
   transform="translate(-48.116679,0.75859626)">
		
		
		
		
		
		
		
		
		
		
		
		
		
		
		
		
		
		
		
		
		
		
		
		
		
		
		
		
		
		
		
		
		
		
	<g
   id="g47"
   transform="matrix(0.38736963,0,0,0.42174589,103.23598,-0.15241291)"><path
     fill="#32414b"
     d="m 744.51287,115.46415 c -5.022,0 -9.108,4.086 -9.108,9.108 0,1.381 1.119,2.5 2.5,2.5 1.381,0 2.5,-1.119 2.5,-2.5 0,-2.265 1.843,-4.108 4.108,-4.108 1.381,0 2.5,-1.119 2.5,-2.5 0,-1.381 -1.119,-2.5 -2.5,-2.5 z"
     id="path44483" /><path
     fill="#32414b"
     d="m 764.86987,100.10715 c 1.381,0 2.5,-1.118999 2.5,-2.499999 0,-2.265 1.843,-4.108 4.108,-4.108 1.381,0 2.5,-1.119 2.5,-2.5 0,-1.381 -1.119,-2.5 -2.5,-2.5 -5.022,0 -9.108,4.086 -9.108,9.108 0,1.381 1.119,2.499999 2.5,2.499999 z"
     id="path44485" /><path
     fill="#32414b"
     d="m 749.91087,151.53615 c 0,11.892 9.675,21.567 21.567,21.567 11.892,0 21.567,-9.675 21.567,-21.567 0,-2.212 -0.337,-4.346 -0.958,-6.356 2.01,0.621 4.144,0.958 6.355,0.958 11.892,0 21.567,-9.675 21.567,-21.567 0,-11.892 -9.675,-21.567 -21.567,-21.567 -2.211,0 -4.345,0.337 -6.355,0.958 0.621,-2.01 0.958,-4.143999 0.958,-6.354999 0,-11.892 -9.675,-21.567 -21.567,-21.567 -11.892,0 -21.567,9.675 -21.567,21.567 0,2.211 0.337,4.344999 0.958,6.354999 -2.01,-0.621 -4.144,-0.958 -6.356,-0.958 -11.892,0 -21.567,9.675 -21.567,21.567 0,11.892 9.675,21.567 21.567,21.567 2.212,0 4.346,-0.337 6.356,-0.958 -0.621,2.011 -0.958,4.145 -0.958,6.356 z m 21.567,16.567 c -9.135,0 -16.567,-7.432 -16.567,-16.567 0,-9.135 7.432,-16.567 16.567,-16.567 9.135,0 16.567,7.432 16.567,16.567 0,9.135 -7.432,16.567 -16.567,16.567 z m -6.356,-37.175 c 0.621,-2.01 0.958,-4.145 0.958,-6.356 0,-2.211 -0.337,-4.345 -0.958,-6.355 2.01,0.621 4.144,0.958 6.356,0.958 2.211,0 4.345,-0.337 6.355,-0.958 -0.621,2.01 -0.958,4.144 -0.958,6.355 0,2.212 0.337,4.346 0.958,6.356 -2.01,-0.621 -4.144,-0.958 -6.355,-0.958 -2.212,0 -4.346,0.337 -6.356,0.958 z m 49.887,-6.356 c 0,9.135 -7.432,16.567 -16.567,16.567 -9.135,0 -16.567,-7.432 -16.567,-16.567 0,-9.135 7.432,-16.567 16.567,-16.567 9.135,0 16.567,7.431 16.567,16.567 z m -43.531,-43.531999 c 9.135,0 16.567,7.432 16.567,16.567 0,9.134999 -7.432,16.566999 -16.567,16.566999 -9.135,0 -16.567,-7.432 -16.567,-16.566999 0,-9.135 7.432,-16.567 16.567,-16.567 z m -43.532,43.531999 c 0,-9.135 7.432,-16.567 16.567,-16.567 9.135,0 16.567,7.432 16.567,16.567 0,9.135 -7.432,16.567 -16.567,16.567 -9.135,0 -16.567,-7.432 -16.567,-16.567 z"
     id="path44487" /><path
     fill="#32414b"
     d="m 771.47787,142.42815 c -5.022,0 -9.108,4.086 -9.108,9.108 0,1.381 1.119,2.5 2.5,2.5 1.381,0 2.5,-1.119 2.5,-2.5 0,-2.265 1.843,-4.108 4.108,-4.108 1.381,0 2.5,-1.119 2.5,-2.5 0,-1.381 -1.119,-2.5 -2.5,-2.5 z"
     id="path44489" /><path
     fill="#32414b"
     d="m 791.83387,127.07215 c 1.381,0 2.5,-1.119 2.5,-2.5 0,-2.265 1.843,-4.108 4.108,-4.108 1.381,0 2.5,-1.119 2.5,-2.5 0,-1.381 -1.119,-2.5 -2.5,-2.5 -5.022,0 -9.108,4.086 -9.108,9.108 0,1.381 1.119,2.5 2.5,2.5 z"
     id="path44491" /><path
     fill="#32414b"
     d="m 1091.8587,462.5233 c 0,1.381 1.119,2.5 2.5,2.5 1.381,0 2.5,-1.119 2.5,-2.5 0,-2.265 1.843,-4.107 4.107,-4.107 1.381,0 2.5,-1.119 2.5,-2.5 0,-1.381 -1.119,-2.5 -2.5,-2.5 -5.021,0 -9.107,4.086 -9.107,9.107 z"
     id="path44493" /><path
     fill="#32414b"
     d="m 1100.9667,415.2823 c -5.021,0 -9.107,4.086 -9.107,9.107 0,1.381 1.119,2.5 2.5,2.5 1.381,0 2.5,-1.119 2.5,-2.5 0,-2.265 1.843,-4.107 4.107,-4.107 1.381,0 2.5,-1.119 2.5,-2.5 0,-1.381 -1.119,-2.5 -2.5,-2.5 z"
     id="path44495" /><path
     fill="#32414b"
     d="m 1166.0637,375.8593 c -8.257,0 -15.436,4.669 -19.059,11.501 -3.621,-6.838 -10.803,-11.512 -19.064,-11.512 -11.893,0 -21.567,9.675 -21.567,21.567 0,2.217 0.338,4.356 0.962,6.37 -2.014,-0.624 -4.153,-0.962 -6.369,-0.962 -11.892,0 -21.566,9.675 -21.566,21.566 0,8.263 4.676,15.446 11.516,19.067 -6.84,3.62 -11.516,10.804 -11.516,19.066 0,11.893 9.675,21.567 21.566,21.567 11.893,0 21.567,-9.675 21.567,-21.567 0,-8.262 -4.676,-15.445 -11.516,-19.066 6.84,-3.62 11.516,-10.804 11.516,-19.067 0,-2.217 -0.338,-4.356 -0.962,-6.37 2.014,0.624 4.153,0.962 6.369,0.962 8.257,0 15.436,-4.669 19.059,-11.501 3.621,6.838 10.803,11.512 19.064,11.512 11.893,0 21.567,-9.675 21.567,-21.567 10e-4,-11.891 -9.674,-21.566 -21.567,-21.566 z m -48.53,86.664 c 0,9.136 -7.432,16.567 -16.567,16.567 -9.135,0 -16.566,-7.432 -16.566,-16.567 0,-9.132 7.427,-16.561 16.557,-16.566 0,0 0.01,0 0.01,0 0,0 0.01,0 0.01,0 9.13,0.005 16.556,7.435 16.556,16.566 z m -16.558,-21.566 c 0,0 -0.01,0 -0.01,0 0,0 -0.01,0 -0.01,0 -9.13,-0.005 -16.557,-7.434 -16.557,-16.567 0,-9.135 7.432,-16.566 16.566,-16.566 9.136,0 16.567,7.432 16.567,16.566 0,9.133 -7.424,16.562 -16.556,16.567 z m 26.965,-26.975 c -9.136,0 -16.567,-7.432 -16.567,-16.566 0,-9.136 7.432,-16.567 16.567,-16.567 9.104,0 16.512,7.383 16.562,16.476 0,0.034 -0.01,0.067 -0.01,0.101 0,0.031 0.01,0.061 0.01,0.091 -0.056,9.088 -7.461,16.465 -16.562,16.465 z m 38.123,0.011 c -9.104,0 -16.512,-7.383 -16.562,-16.476 0,-0.034 0,-0.067 0,-0.101 0,-0.031 0,-0.061 0,-0.091 0.055,-9.088 7.461,-16.465 16.561,-16.465 9.136,0 16.567,7.432 16.567,16.566 0,9.135 -7.43,16.567 -16.566,16.567 z"
     id="path44497" /><path
     fill="#32414b"
     d="m 1166.0647,388.3183 c -5.022,0 -9.108,4.086 -9.108,9.107 0,1.381 1.119,2.5 2.5,2.5 1.381,0 2.5,-1.119 2.5,-2.5 0,-2.265 1.843,-4.107 4.108,-4.107 1.381,0 2.5,-1.119 2.5,-2.5 0,-1.381 -1.119,-2.5 -2.5,-2.5 z"
     id="path44499" /><path
     fill="#32414b"
     d="m 1127.9407,388.3073 c -5.022,0 -9.108,4.086 -9.108,9.108 0,1.381 1.119,2.5 2.5,2.5 1.381,0 2.5,-1.119 2.5,-2.5 0,-2.266 1.843,-4.108 4.108,-4.108 1.381,0 2.5,-1.119 2.5,-2.5 0,-1.381 -1.119,-2.5 -2.5,-2.5 z"
     id="path44501" /><path
     fill="#32414b"
     d="m 893.28787,70.500151 c 0.977,-0.976 0.977,-2.559 0,-3.535 -0.976,-0.977 -2.56,-0.977 -3.535,0 -4.858,4.858 -4.858,12.763 0,17.622 0.488,0.488 1.128,0.732 1.768,0.732 0.64,0 1.279,-0.244 1.768,-0.732 0.977,-0.977 0.977,-2.56 0,-3.536 -2.909,-2.908 -2.909,-7.641 -10e-4,-10.551 z"
     id="path44503" /><path
     fill="#32414b"
     d="m 925.65987,110.33115 c 0,-1.993 0.776,-3.866 2.185,-5.276 0.977,-0.976 0.977,-2.559 0,-3.535 -0.976,-0.977 -2.56,-0.977 -3.535,0 -2.354,2.354 -3.65,5.483 -3.65,8.811 0,3.329 1.296,6.458 3.65,8.812 0.488,0.488 1.128,0.732 1.768,0.732 0.64,0 1.28,-0.244 1.768,-0.732 0.976,-0.976 0.976,-2.559 0,-3.536 -1.411,-1.409 -2.186,-3.283 -2.186,-5.276 z"
     id="path44505" /><path
     fill="#32414b"
     d="m 1029.7849,125.10515 -0.166,0.139 c -0.114,0.097 -0.272,0.23 -0.273,0.241 -10e-4,0 -0.03,0.004 -0.162,0.006 -0.054,-0.036 -0.102,-0.076 -0.151,-0.114 -0.507,-0.377 -1.449,-1.079 -3.067,-1.105 -0.349,-0.009 -0.664,0.022 -0.956,0.072 -0.252,-2.099 -0.81,-4.187 -1.696,-6.2 0.634,0.073 1.786,0.196 3.182,-0.579 1.413,-0.786 1.912,-1.849 2.181,-2.42 0.027,-0.058 0.052,-0.117 0.082,-0.174 v -0.003 c 1.206,-0.67 1.641,-2.193 0.971,-3.399 -0.671,-1.208 -2.194,-1.641 -3.4,-0.971 -1.414,0.786 -1.913,1.849 -2.182,2.42 -0.027,0.057 -0.051,0.115 -0.081,0.172 l -0.015,0.008 c -0.063,-0.005 -0.125,-0.016 -0.188,-0.022 -0.622,-0.073 -1.774,-0.204 -3.169,0.555 -1.196,-1.586 -2.58,-2.995 -4.137,-4.188 0.014,-0.348 -0.01,-0.644 -0.029,-0.869 0,-0.062 -0.014,-0.124 -0.016,-0.188 l 0.01,-0.015 c 0.058,-0.028 0.116,-0.05 0.174,-0.075 0.58,-0.25 1.659,-0.715 2.491,-2.104 1.032,-1.726 0.778,-3.124 0.626,-3.959 l -0.03,-0.17 c -0.237,-1.36 -1.53,-2.268999 -2.893,-2.034 -1.359,0.237 -2.271,1.532 -2.033,2.892 l 0.037,0.207 c 0.027,0.148 0.064,0.352 0.073,0.358 -10e-4,0 -0.013,0.036 -0.076,0.143 -0.058,0.028 -0.117,0.05 -0.175,0.075 -0.58,0.25 -1.659,0.715 -2.49,2.103 -0.183,0.305 -0.314,0.597 -0.417,0.877 -0.839,-0.356 -1.695,-0.68 -2.585,-0.934 -1.048,-0.299 -2.107,-0.492 -3.168,-0.634 -0.166,-0.318 -0.339,-0.569 -0.471,-0.758 -0.035,-0.051 -0.073,-0.101 -0.107,-0.154 v -0.017 c 0.036,-0.053 0.076,-0.102 0.113,-0.151 0.378,-0.507 1.08,-1.45 1.105,-3.065 0.033,-2.007999 -0.883,-3.090999 -1.431,-3.737999 l -0.114,-0.135 c -0.884,-1.062 -2.461,-1.204 -3.521,-0.322 -1.062,0.884 -1.205,2.46 -0.321,3.520999 l 0.139,0.166 c 0.098,0.115 0.23,0.272 0.241,0.272 0,0 0.01,0.037 0,0.163 -0.036,0.053 -0.076,0.102 -0.113,0.151 -0.377,0.506 -1.079,1.449 -1.105,3.066 -0.01,0.346 0.026,0.656 0.074,0.945 -1.76403,0.213 -3.49603,0.663 -5.17603,1.307 -0.332,-0.22 -0.636,-0.366 -0.862,-0.472 -0.057,-0.026 -0.115,-0.05 -0.172,-0.08 l -0.008,-0.015 c 0.005,-0.064 0.016,-0.125 0.022,-0.188 0.073,-0.627 0.211,-1.795 -0.575,-3.209 -0.977,-1.756 -2.312,-2.236 -3.11,-2.521999 l -0.166,-0.06 c -1.291,-0.478 -2.732,0.186999 -3.209,1.482999 -0.477,1.296 0.188,2.733 1.484,3.209 l 0.201,0.073 c 0.145,0.052 0.346,0.121 0.346,0.116 0,0 0.025,0.028 0.086,0.138 -0.005,0.064 -0.016,0.126 -0.022,0.188 -0.073,0.627 -0.211,1.795 0.575,3.209 0.13,0.235 0.27,0.436 0.412,0.623 l -31.917,17.742 c -1.055,0.586 -2.033,1.267 -2.962,2 -0.401,-0.683 -1.117,-1.165 -1.967,-1.229 l -0.216,-0.015 c -0.15,-0.009 -0.357,-0.022 -0.364,-0.017 0,0 -0.032,-0.02 -0.119,-0.106 -0.013,-0.063 -0.021,-0.126 -0.03,-0.188 -0.102,-0.623 -0.291,-1.783 -1.435,-2.927 -0.189,-0.19 -0.378,-0.345 -0.566,-0.486 l 5.473,-5.473 c 0.265,0.068 0.501,0.11 0.686,0.14 0.062,0.01 0.124,0.017 0.187,0.03 l 0.012,0.012 c 0.013,0.063 0.02,0.125 0.03,0.188 0.102,0.623 0.29,1.782 1.434,2.926 1.42,1.42 2.836,1.515 3.682,1.571 l 0.176,0.012 c 0.063,0.005 0.126,0.007 0.188,0.007 1.296,0 2.393,-1 2.491,-2.314 0.103,-1.377 -0.931,-2.576 -2.308,-2.679 l -0.215,-0.015 c -0.15,-0.01 -0.355,-0.025 -0.363,-0.017 0,0 -0.032,-0.021 -0.12,-0.108 -0.013,-0.063 -0.02,-0.126 -0.03,-0.188 -0.101,-0.624 -0.29,-1.783 -1.435,-2.928 -0.19,-0.19 -0.379,-0.345 -0.567,-0.486 l 5.473,-5.473 c 0.265,0.068 0.501,0.11 0.686,0.14 0.062,0.01 0.123,0.017 0.186,0.03 l 0.013,0.013 c 0.014,0.063 0.021,0.125 0.03,0.187 0.102,0.623 0.291,1.782 1.434,2.926 1.419,1.419 2.834,1.515 3.68,1.571 l 0.177,0.013 c 0.064,0.004 0.127,0.007 0.19,0.007 1.295,0 2.392,-1 2.49,-2.313 0.104,-1.376 -0.929,-2.577 -2.306,-2.68 l -0.217,-0.015 c -0.148,-0.009 -0.356,-0.024 -0.363,-0.017 0,0 -0.031,-0.02 -0.119,-0.108 -0.014,-0.063 -0.021,-0.126 -0.03,-0.188 -0.102,-0.623 -0.291,-1.783 -1.435,-2.927 -0.19,-0.19 -0.379,-0.345 -0.567,-0.486 l 5.472,-5.471999 c 0.265,0.068 0.5,0.11 0.685,0.14 0.062,0.01 0.124,0.017 0.187,0.03 l 0.013,0.013 c 0.014,0.063 0.021,0.125 0.03,0.187 0.102,0.622999 0.29,1.780999 1.434,2.926999 1.42,1.418 2.834,1.514 3.68,1.57 l 0.177,0.013 c 0.064,0.004 0.127,0.007 0.19,0.007 1.295,0 2.392,-1 2.49,-2.313 0.104,-1.376 -0.929,-2.576999 -2.306,-2.679999 l -0.217,-0.015 c -0.122,-0.008 -0.282,-0.019 -0.341,-0.019 -0.024,0 0.05,0.088 -0.142,-0.105 -0.014,-0.063 -0.021,-0.126 -0.03,-0.188 -0.102,-0.624 -0.291,-1.784 -1.435,-2.928 -0.276,-0.276 -0.552,-0.494 -0.822,-0.671 1.065,-1.477 1.941,-3.063 2.602,-4.74 0.338,-0.082 0.616,-0.186 0.827,-0.266 0.058,-0.022 0.115,-0.047 0.176,-0.067 l 0.017,0.004 c 0.043,0.048 0.08,0.098 0.119,0.147 0.4,0.489 1.144,1.399 2.706,1.817 0.527,0.142 1.006,0.198 1.438,0.198 1.154,0 1.979,-0.404 2.531,-0.675 l 0.162,-0.079 c 1.244,-0.598 1.769,-2.091 1.171,-3.336 -0.598,-1.243 -2.088,-1.768 -3.337,-1.171 l -0.198,0.097 c -0.135,0.066 -0.319,0.157 -0.322,0.167 0,0 -0.037,-0.001 -0.158,-0.034 -0.043,-0.048 -0.08,-0.099 -0.119,-0.147 -0.4,-0.489 -1.144,-1.399 -2.706,-1.817 -0.343,-0.092 -0.659,-0.138 -0.957,-0.16 0.112,-0.904 0.189,-1.816 0.189,-2.742 0,-1.09 -0.105,-2.161 -0.26,-3.221 0.26,-0.246 0.454,-0.481 0.599,-0.66 0.039,-0.048 0.076,-0.098 0.118,-0.146 l 0.017,-0.004 c 0.061,0.02 0.118,0.045 0.177,0.067 0.591,0.224 1.693,0.642 3.253,0.22 1.939,-0.52 2.729,-1.698 3.201,-2.401 l 0.099,-0.147 c 0.778,-1.141 0.483,-2.696 -0.657,-3.474 -1.14,-0.777 -2.694,-0.484 -3.474,0.657 l -0.121,0.179 c -0.083,0.125 -0.198,0.296 -0.196,0.307 -0.001,0 -0.034,0.018 -0.156,0.05 -0.062,-0.02 -0.119,-0.045 -0.178,-0.067 -0.591,-0.224 -1.689,-0.642 -3.249,-0.221 -0.335,0.089 -0.625,0.205 -0.889,0.33 -0.831,-1.973 -1.954,-3.822 -3.347,-5.496 0.628,-0.103 1.771,-0.3 2.902,-1.431 1.143,-1.144 1.331,-2.303 1.433,-2.925 0.011,-0.063 0.018,-0.126 0.031,-0.19 l 0.004,-0.004 c 0.976,-0.977 0.976,-2.56 -10e-4,-3.536 -0.977,-0.976 -2.56,-0.976 -3.536,0 -1.143,1.144 -1.331,2.303 -1.433,2.925 -0.01,0.062 -0.018,0.124 -0.03,0.187 l -0.013,0.012 c -0.062,0.013 -0.125,0.02 -0.188,0.03 -0.618,0.101 -1.762,0.29 -2.896,1.406 -1.6,-1.204 -3.32,-2.175 -5.124,-2.885 -0.083,-0.342 -0.187,-0.622 -0.268,-0.835 -0.022,-0.059 -0.048,-0.116 -0.067,-0.176 l 0.004,-0.017 c 0.049,-0.043 0.099,-0.08 0.147,-0.12 0.489,-0.399 1.398,-1.143 1.818,-2.706 0.519,-1.937 -0.105,-3.208 -0.479,-3.968 l -0.079,-0.162 c -0.598,-1.245 -2.093,-1.768 -3.336,-1.17 -1.245,0.598 -1.769,2.092 -1.17,3.336 l 0.097,0.2 c 0.066,0.134 0.157,0.318 0.167,0.321 0,0 -0.001,0.037 -0.034,0.157 -0.048,0.043 -0.099,0.081 -0.148,0.121 -0.489,0.399 -1.399,1.144 -1.817,2.706 -0.093,0.348 -0.14,0.669 -0.162,0.97 -5.476,-0.683 -11.146,0.691 -15.78,4.115 -0.218,-0.082 -0.446,-0.146 -0.69,-0.164 l -0.216,-0.015 c -0.15,-0.01 -0.356,-0.025 -0.364,-0.017 0,0 -0.032,-0.021 -0.119,-0.107 -0.013,-0.063 -0.02,-0.126 -0.03,-0.188 -0.101,-0.623 -0.29,-1.783 -1.435,-2.927 -0.277,-0.277 -0.554,-0.496 -0.825,-0.673 1.07,-1.49 1.946,-3.076 2.598,-4.734 0.342,-0.083 0.622,-0.187 0.834,-0.268 0.058,-0.022 0.115,-0.047 0.175,-0.067 l 0.018,0.005 c 0.043,0.048 0.08,0.099 0.12,0.147 0.399,0.489 1.143,1.399 2.705,1.817 0.528,0.142 1.006,0.199 1.439,0.198 1.155,0 1.98,-0.405 2.533,-0.677 l 0.161,-0.079 c 1.244,-0.599 1.767,-2.093 1.168,-3.337 -0.599,-1.244 -2.093,-1.768 -3.337,-1.168 l -0.197,0.096 c -0.135,0.066 -0.319,0.157 -0.321,0.167 0,0 -0.038,-10e-4 -0.159,-0.034 -0.043,-0.048 -0.081,-0.099 -0.12,-0.147 -0.399,-0.489 -1.143,-1.399 -2.705,-1.817 -0.348,-0.093 -0.669,-0.14 -0.97,-0.162 0.247,-1.978 0.222,-3.979 -0.068,-5.953 0.266,-0.25 0.461,-0.488 0.609,-0.669 0.039,-0.048 0.076,-0.098 0.118,-0.146 l 0.017,-0.004 c 0.061,0.02 0.118,0.045 0.177,0.067 0.591,0.225 1.692,0.64 3.254,0.221 1.94,-0.521 2.729,-1.699 3.201,-2.403 l 0.099,-0.146 c 0.777,-1.141 0.482,-2.696 -0.659,-3.474 -1.142,-0.778 -2.697,-0.482 -3.474,0.659 l -0.12,0.178 c -0.083,0.125 -0.198,0.296 -0.196,0.307 0,0 -0.034,0.018 -0.155,0.05 -0.061,-0.02 -0.119,-0.045 -0.178,-0.068 -0.589,-0.224 -1.689,-0.64 -3.25,-0.221 -0.341,0.091 -0.637,0.209 -0.905,0.337 -0.819,-1.952 -1.929,-3.809 -3.335,-5.503 0.628,-0.102 1.773,-0.299 2.904,-1.431 1.144,-1.144 1.333,-2.303 1.434,-2.926 0.01,-0.063 0.017,-0.126 0.03,-0.19 l 0.004,-0.004 c 0.977,-0.976 0.977,-2.559 0,-3.536 -0.977,-0.977 -2.559,-0.977 -3.536,0 -1.144,1.144 -1.333,2.304 -1.434,2.927 -0.01,0.062 -0.017,0.124 -0.03,0.187 l -0.012,0.012 c -0.063,0.013 -0.125,0.02 -0.187,0.03 -0.617,0.101 -1.761,0.289 -2.896,1.406 -1.601,-1.204 -3.32,-2.175 -5.125,-2.884 -0.083,-0.341 -0.187,-0.622 -0.268,-0.834 -0.022,-0.058 -0.047,-0.115 -0.067,-0.176 l 0.004,-0.017 c 0.048,-0.043 0.099,-0.08 0.147,-0.12 0.489,-0.399 1.399,-1.143 1.817,-2.705 0.521,-1.938 -0.105,-3.211 -0.479,-3.971 l -0.079,-0.161 c -0.599,-1.244 -2.092,-1.769 -3.337,-1.168 -1.244,0.599 -1.767,2.093 -1.168,3.337 l 0.096,0.197 c 0.066,0.134 0.157,0.318 0.167,0.32 0,0 -0.001,0.038 -0.034,0.159 -0.048,0.043 -0.099,0.081 -0.147,0.12 -0.489,0.399 -1.399,1.143 -1.817,2.706 -0.093,0.348 -0.14,0.668 -0.161,0.97 -1.978,-0.247 -3.978,-0.221 -5.951,0.068 -0.25,-0.266 -0.489,-0.462 -0.671,-0.61 -0.048,-0.039 -0.099,-0.076 -0.146,-0.119 l -0.004,-0.016 c 0.02,-0.061 0.045,-0.118 0.067,-0.177 0.224,-0.591 0.64,-1.69 0.221,-3.253 -0.52,-1.94 -1.698,-2.729 -2.402,-3.201 l -0.147,-0.099 c -1.142,-0.778 -2.697,-0.482 -3.474,0.659 -0.777,1.141 -0.482,2.696 0.659,3.474 l 0.179,0.12 c 0.128,0.086 0.299,0.196 0.306,0.196 0,0 0.018,0.034 0.05,0.156 -0.02,0.061 -0.045,0.119 -0.068,0.178 -0.223,0.59 -0.64,1.688 -0.221,3.251 0.091,0.341 0.209,0.636 0.338,0.904 -1.622,0.681 -3.171,1.577 -4.622,2.664 -0.381,-0.122 -0.714,-0.179 -0.961,-0.219 -0.062,-0.01 -0.124,-0.017 -0.187,-0.03 l -0.012,-0.012 c -0.013,-0.063 -0.02,-0.125 -0.03,-0.187 -0.102,-0.623 -0.29,-1.782 -1.435,-2.927 -1.419,-1.418 -2.833,-1.514 -3.679,-1.57 l -0.177,-0.013 c -1.377,-0.089 -2.577,0.929 -2.68,2.306 -0.103,1.376 0.929,2.577 2.306,2.68 l 0.216,0.015 c 0.15,0.009 0.357,0.025 0.364,0.017 0,0 0.032,0.021 0.119,0.107 0.013,0.063 0.02,0.126 0.03,0.188 0.101,0.623 0.29,1.783 1.435,2.927 0.19,0.19 0.379,0.345 0.567,0.486 l -5.476,5.475 c -0.264,-0.068 -0.5,-0.109 -0.684,-0.139 -0.062,-0.01 -0.124,-0.017 -0.187,-0.03 l -0.013,-0.013 c -0.013,-0.063 -0.02,-0.125 -0.03,-0.188 -0.102,-0.623 -0.29,-1.781 -1.434,-2.926 -1.419,-1.419 -2.834,-1.515 -3.68,-1.571 l -0.177,-0.013 c -1.375,-0.092 -2.577,0.93 -2.68,2.306 -0.103,1.377 0.929,2.577 2.306,2.68 l 0.216,0.015 c 0.15,0.009 0.356,0.024 0.364,0.017 0,0 0.032,0.021 0.119,0.108 0.013,0.063 0.021,0.125 0.03,0.188 0.102,0.623 0.291,1.783 1.435,2.927 0.189,0.19 0.378,0.345 0.566,0.486 l -5.473,5.473 c -0.265,-0.068 -0.501,-0.11 -0.685,-0.14 -0.062,-0.01 -0.124,-0.017 -0.186,-0.03 l -0.012,-0.012 c -0.013,-0.063 -0.02,-0.126 -0.03,-0.188 -0.102,-0.623 -0.291,-1.782 -1.434,-2.926 -1.418,-1.42 -2.833,-1.515 -3.679,-1.571 l -0.178,-0.013 c -1.372,-0.095 -2.577,0.93 -2.68,2.306 -0.103,1.376 0.929,2.577 2.306,2.68 l 0.217,0.015 c 0.15,0.01 0.355,0.025 0.363,0.017 0,0 0.032,0.02 0.119,0.107 0.013,0.063 0.021,0.126 0.03,0.188 0.102,0.623 0.291,1.783 1.435,2.927 0.189,0.19 0.379,0.345 0.566,0.486 l -5.474,5.474 c -0.264,-0.068 -0.5,-0.109 -0.684,-0.14 -0.062,-0.01 -0.124,-0.017 -0.187,-0.03 l -0.013,-0.013 c -0.013,-0.063 -0.02,-0.125 -0.03,-0.187 -0.102,-0.623 -0.29,-1.782 -1.435,-2.927 -1.419,-1.418 -2.833,-1.514 -3.679,-1.57 l -0.177,-0.013 c -1.379,-0.087 -2.576,0.929 -2.68,2.306 -0.103,1.376 0.929,2.577 2.306,2.68 l 0.216,0.015 c 0.15,0.01 0.356,0.023 0.364,0.017 0,0 0.032,0.021 0.119,0.107 0.013,0.063 0.02,0.126 0.03,0.188 0.101,0.623 0.29,1.783 1.435,2.927 0.253,0.253 0.505,0.452 0.754,0.621 -1.231,1.621 -2.219,3.367 -2.939,5.2 -0.342,0.083 -0.622,0.187 -0.834,0.268 -0.058,0.022 -0.115,0.047 -0.175,0.067 l -0.018,-0.005 c -0.043,-0.048 -0.08,-0.099 -0.12,-0.147 -0.399,-0.489 -1.143,-1.399 -2.705,-1.817 -1.936,-0.519 -3.211,0.104 -3.972,0.479 l -0.161,0.079 c -1.244,0.599 -1.767,2.093 -1.168,3.337 0.598,1.243 2.091,1.767 3.337,1.168 l 0.197,-0.096 c 0.135,-0.066 0.319,-0.157 0.321,-0.167 0,0 0.038,10e-4 0.159,0.034 0.043,0.048 0.081,0.099 0.12,0.147 0.399,0.489 1.143,1.399 2.705,1.817 0.35,0.094 0.668,0.135 0.971,0.157 -0.247,1.98 -0.223,3.982 0.067,5.957 -0.266,0.25 -0.462,0.489 -0.609,0.669 -0.04,0.048 -0.076,0.098 -0.119,0.146 l -0.016,0.004 c -0.062,-0.02 -0.119,-0.045 -0.177,-0.067 -0.59,-0.224 -1.691,-0.639 -3.254,-0.221 -1.94,0.521 -2.729,1.699 -3.201,2.403 l -0.099,0.146 c -0.777,1.141 -0.482,2.696 0.659,3.474 0.431,0.293 0.92,0.434 1.405,0.434 0.799,0 1.585,-0.382 2.069,-1.093 l 0.12,-0.178 c 0.083,-0.125 0.198,-0.296 0.196,-0.307 0,0 0.034,-0.018 0.155,-0.05 0.061,0.02 0.119,0.045 0.178,0.068 0.59,0.223 1.688,0.638 3.25,0.221 0.341,-0.091 0.637,-0.209 0.905,-0.337 0.761,1.815 1.775,3.545 3.044,5.141 -0.099,0.337 -0.149,0.632 -0.185,0.856 -0.01,0.062 -0.017,0.124 -0.03,0.187 l -0.012,0.012 c -0.063,0.013 -0.125,0.02 -0.187,0.03 -0.623,0.102 -1.782,0.29 -2.927,1.434 -1.419,1.419 -1.514,2.833 -1.571,3.679 l -0.013,0.178 c -0.103,1.376 0.929,2.577 2.306,2.68 0.063,0.004 0.127,0.007 0.189,0.007 1.296,0 2.392,-1 2.491,-2.313 l 0.015,-0.217 c 0.01,-0.15 0.024,-0.355 0.017,-0.363 0,0 0.02,-0.032 0.107,-0.119 0.063,-0.013 0.126,-0.02 0.188,-0.03 0.623,-0.101 1.783,-0.29 2.927,-1.435 0.253,-0.253 0.452,-0.505 0.621,-0.754 1.621,1.231 3.367,2.219 5.199,2.94 0.083,0.341 0.187,0.622 0.268,0.834 0.022,0.058 0.047,0.115 0.067,0.176 l -0.004,0.017 c -0.048,0.043 -0.099,0.08 -0.147,0.12 -0.489,0.399 -1.399,1.143 -1.817,2.705999 -0.52,1.938 0.105,3.21 0.479,3.97 l 0.079,0.161 c 0.431,0.895 1.324,1.416 2.254,1.416 0.363,0 0.733,-0.08 1.083,-0.248 1.244,-0.599 1.767,-2.093 1.168,-3.337 l -0.096,-0.197 c -0.066,-0.135 -0.157,-0.319 -0.167,-0.321 0,0 0.001,-0.038 0.034,-0.158 0.048,-0.043 0.099,-0.081 0.148,-0.121 0.489,-0.399 1.399,-1.144 1.817,-2.705999 0.093,-0.348 0.14,-0.668 0.162,-0.969 0.911,0.114 1.825,0.192 2.742,0.192 1.074,0 2.146,-0.103 3.21,-0.259 0.25,0.266 0.489,0.462 0.67,0.61 0.048,0.039 0.099,0.076 0.146,0.119 l 0.004,0.016 c -0.02,0.062 -0.045,0.119 -0.067,0.177 -0.224,0.591 -0.64,1.689999 -0.221,3.252999 0.52,1.94 1.698,2.729 2.402,3.201 l 0.147,0.099 c 0.431,0.293 0.92,0.434 1.405,0.434 0.799,0 1.585,-0.383 2.069,-1.093 0.777,-1.141 0.482,-2.696 -0.659,-3.474 l -0.179,-0.12 c -0.128,-0.086 -0.304,-0.203 -0.306,-0.196 0,0 -0.018,-0.034 -0.05,-0.156 0.02,-0.061 0.045,-0.119 0.068,-0.178 0.223,-0.589999 0.64,-1.687999 0.221,-3.249999 -0.091,-0.341 -0.209,-0.637 -0.337,-0.905 1.814,-0.761 3.545,-1.775 5.141,-3.044 0.337,0.099 0.632,0.149 0.857,0.186 0.062,0.01 0.124,0.017 0.186,0.03 l 0.012,0.012 c 0.013,0.063 0.02,0.126 0.03,0.188 0.102,0.623 0.291,1.782 1.434,2.926 0.3,0.3 0.598,0.53 0.892,0.724 -3.659,4.809999 -5.068,10.780999 -4.23,16.497999 -0.266,0.25 -0.462,0.489 -0.609,0.67 -0.039,0.048 -0.076,0.098 -0.118,0.146 l -0.016,0.004 c -0.061,-0.02 -0.119,-0.045 -0.177,-0.067 -0.59,-0.224 -1.688,-0.642 -3.252,-0.221 -1.939,0.52 -2.729,1.697 -3.201,2.401 l -0.099,0.147 c -0.778,1.141 -0.484,2.696 0.657,3.474 0.431,0.294 0.921,0.435 1.406,0.435 0.799,0 1.584,-0.382 2.068,-1.092 l 0.121,-0.18 c 0.084,-0.125 0.199,-0.296 0.196,-0.306 0,0 0.034,-0.018 0.156,-0.05 0.061,0.02 0.119,0.045 0.177,0.068 0.59,0.224 1.69,0.638 3.25,0.221 0.341,-0.091 0.636,-0.208 0.904,-0.337 0.761,1.815 1.775,3.546 3.044,5.142 -0.099,0.336 -0.149,0.631 -0.185,0.855 -0.01,0.062 -0.017,0.124 -0.03,0.186 l -0.013,0.013 c -0.063,0.013 -0.125,0.02 -0.188,0.03 -0.623,0.102 -1.782,0.291 -2.926,1.434 -1.419,1.419 -1.515,2.834 -1.571,3.679 l -0.013,0.177 c -0.103,1.376 0.929,2.577 2.306,2.68 0.063,0.004 0.127,0.007 0.189,0.007 1.296,0 2.392,-1 2.491,-2.313 l 0.015,-0.216 c 0.01,-0.15 0.024,-0.355 0.017,-0.364 0,0 0.021,-0.032 0.108,-0.12 0.063,-0.013 0.126,-0.02 0.188,-0.03 0.623,-0.102 1.783,-0.291 2.927,-1.435 0.252,-0.252 0.451,-0.504 0.62,-0.752 1.622,1.231 3.368,2.22 5.201,2.94 0.082,0.341 0.187,0.621 0.268,0.833 0.022,0.059 0.047,0.116 0.067,0.176 l -0.004,0.017 c -0.048,0.043 -0.099,0.08 -0.147,0.12 -0.489,0.4 -1.399,1.144 -1.817,2.706 -0.52,1.938 0.105,3.21 0.478,3.97 l 0.079,0.161 c 0.431,0.895 1.324,1.417 2.255,1.417 0.363,0 0.732,-0.08 1.082,-0.248 1.244,-0.599 1.768,-2.092 1.169,-3.337 l -0.096,-0.197 c -0.066,-0.135 -0.157,-0.319 -0.167,-0.322 0,0 0.001,-0.038 0.034,-0.158 0.048,-0.043 0.099,-0.081 0.147,-0.12 0.489,-0.4 1.399,-1.144 1.817,-2.706 0.093,-0.347 0.14,-0.668 0.162,-0.969 0.91,0.114 1.824,0.191 2.741,0.191 1.075,0 2.146,-0.103 3.211,-0.259 0.25,0.265 0.488,0.461 0.668,0.608 0.048,0.04 0.098,0.076 0.146,0.119 l 0.004,0.016 c -0.02,0.061 -0.045,0.119 -0.067,0.177 -0.224,0.59 -0.64,1.689 -0.221,3.254 0.52,1.938 1.696,2.727 2.399,3.198 l 0.148,0.1 c 0.431,0.294 0.921,0.436 1.407,0.435 0.799,0 1.583,-0.381 2.067,-1.091 0.778,-1.141 0.485,-2.696 -0.656,-3.474 l -0.181,-0.122 c -0.124,-0.083 -0.292,-0.196 -0.306,-0.196 0,0 -0.018,-0.034 -0.05,-0.155 0.02,-0.062 0.045,-0.119 0.068,-0.178 0.223,-0.59 0.64,-1.688 0.221,-3.25 -0.091,-0.341 -0.208,-0.636 -0.337,-0.904 1.815,-0.761 3.546,-1.776 5.142,-3.045 0.336,0.099 0.631,0.149 0.855,0.185 0.062,0.01 0.124,0.017 0.187,0.03 l 0.013,0.013 c 0.013,0.063 0.02,0.125 0.03,0.188 0.102,0.623 0.29,1.781 1.434,2.927 0.906,0.906 1.809,1.27 2.564,1.431 -1.747,2.218 -3.064,4.775 -3.863,7.572 -1.38,4.835 -1.064,9.878 0.842,14.45 -0.188,0.297 -0.317,0.567 -0.413,0.773 -0.026,0.057 -0.05,0.114 -0.08,0.171 l -0.015,0.008 c -0.064,-0.004 -0.126,-0.015 -0.188,-0.022 -0.626,-0.073 -1.794,-0.211 -3.208,0.576 -1.756,0.976 -2.236,2.312 -2.522,3.11 l -0.06,0.166 c -0.477,1.296 0.188,2.733 1.483,3.209 0.285,0.105 0.576,0.154 0.862,0.154 1.018,0 1.975,-0.626 2.347,-1.638 l 0.073,-0.202 c 0.051,-0.142 0.121,-0.336 0.116,-0.346 0,0 0.028,-0.025 0.137,-0.086 0.064,0.005 0.125,0.015 0.188,0.022 0.627,0.073 1.795,0.209 3.209,-0.576 0.312,-0.173 0.572,-0.361 0.802,-0.553 1.208,1.616 2.612,3.05 4.194,4.261 -0.014,0.347 0.01,0.643 0.029,0.868 0.005,0.062 0.014,0.124 0.016,0.188 l -0.008,0.014 c -0.058,0.028 -0.117,0.05 -0.174,0.075 -0.58,0.25 -1.659,0.715 -2.49,2.103 -1.033,1.725 -0.78,3.122 -0.628,3.957 l 0.031,0.172 c 0.211,1.216 1.267,2.073 2.46,2.073 0.142,0 0.286,-0.012 0.431,-0.038 1.36,-0.236 2.271,-1.53 2.035,-2.891 l -0.037,-0.209 c -0.027,-0.148 -0.064,-0.351 -0.073,-0.357 0,0 0.012,-0.036 0.076,-0.143 0.058,-0.028 0.117,-0.05 0.175,-0.075 0.58,-0.25 1.659,-0.715 2.491,-2.104 0.182,-0.304 0.313,-0.595 0.416,-0.875 0.839,0.356 1.695,0.68 2.584,0.934 1.053,0.301 2.116,0.516 3.182,0.658 0.161,0.306 0.329,0.549 0.457,0.733 0.035,0.051 0.073,0.101 0.107,0.154 v 0.018 c -0.036,0.053 -0.076,0.101 -0.113,0.151 -0.377,0.507 -1.08,1.45 -1.105,3.065 -0.034,2.008 0.882,3.091 1.43,3.738 l 0.114,0.135 c 0.494,0.594 1.205,0.9 1.922,0.9 0.564,0 1.132,-0.19 1.599,-0.579 1.062,-0.884 1.205,-2.46 0.321,-3.521 l -0.139,-0.166 c -0.098,-0.115 -0.23,-0.272 -0.241,-0.272 0,0 -0.007,-0.037 -0.005,-0.163 0.036,-0.053 0.075,-0.101 0.113,-0.151 0.377,-0.507 1.08,-1.45 1.105,-3.067 0.006,-0.345 -0.025,-0.655 -0.073,-0.942 1.976,-0.239 3.917,-0.754 5.782,-1.532 0.294,0.186 0.562,0.314 0.766,0.41 0.057,0.026 0.114,0.05 0.171,0.08 l 0.009,0.016 c -0.004,0.064 -0.015,0.126 -0.022,0.188 -0.073,0.627 -0.21,1.794 0.576,3.207 0.975,1.757 2.312,2.236 3.109,2.523 l 0.166,0.06 c 0.284,0.105 0.575,0.154 0.862,0.154 1.018,0 1.975,-0.626 2.347,-1.638 0.477,-1.296 -0.188,-2.733 -1.484,-3.209 l -0.201,-0.073 c -0.144,-0.051 -0.342,-0.11 -0.345,-0.115 0,0 -0.025,-0.028 -0.086,-0.139 0.004,-0.064 0.015,-0.126 0.022,-0.189 0.073,-0.627 0.21,-1.794 -0.576,-3.208 -0.13,-0.234 -0.27,-0.435 -0.411,-0.623 l 6.764,-3.76 c 0.236,0.138 0.452,0.243 0.621,0.323 0.057,0.026 0.115,0.05 0.172,0.08 l 0.008,0.015 c -0.005,0.063 -0.016,0.125 -0.022,0.188 -0.073,0.627 -0.211,1.795 0.575,3.208 0.976,1.755 2.311,2.235 3.107,2.521 l 0.167,0.06 c 0.285,0.105 0.577,0.155 0.864,0.155 1.018,0 1.974,-0.626 2.346,-1.636 0.478,-1.296 -0.186,-2.733 -1.481,-3.21 l -0.204,-0.074 c -0.137,-0.049 -0.323,-0.116 -0.344,-0.116 h -10e-4 c 0,0 -0.025,-0.028 -0.086,-0.137 0.005,-0.064 0.016,-0.125 0.022,-0.188 0.073,-0.627 0.211,-1.795 -0.575,-3.209 -0.13,-0.235 -0.27,-0.436 -0.412,-0.624 l 6.76503,-3.76 c 0.236,0.138 0.452,0.243 0.621,0.323 0.057,0.026 0.114,0.05 0.171,0.08 l 0.01,0.016 c 0,0.064 -0.015,0.126 -0.022,0.188 -0.073,0.627 -0.21,1.794 0.575,3.207 0.976,1.757 2.312,2.237 3.109,2.523 l 0.167,0.06 c 0.284,0.105 0.575,0.154 0.862,0.154 1.018,0 1.975,-0.626 2.347,-1.638 0.477,-1.296 -0.188,-2.733 -1.484,-3.209 l -0.202,-0.074 c -0.142,-0.051 -0.35,-0.127 -0.344,-0.114 0,0 -0.024,-0.028 -0.086,-0.139 0,-0.064 0.015,-0.126 0.022,-0.189 0.073,-0.627 0.21,-1.794 -0.576,-3.208 -0.13,-0.235 -0.27,-0.436 -0.412,-0.624 l 6.764,-3.76 c 0.236,0.138 0.452,0.243 0.622,0.323 0.057,0.026 0.115,0.05 0.172,0.08 l 0.01,0.015 c 0,0.063 -0.016,0.125 -0.022,0.188 -0.073,0.627 -0.211,1.795 0.575,3.208 0.977,1.756 2.312,2.236 3.11,2.522 l 0.166,0.06 c 0.284,0.105 0.575,0.154 0.862,0.154 1.018,0 1.975,-0.626 2.347,-1.638 0.477,-1.296 -0.188,-2.733 -1.484,-3.209 l -0.201,-0.073 c -0.145,-0.052 -0.345,-0.114 -0.346,-0.116 0,0 -0.025,-0.028 -0.086,-0.137 0,-0.064 0.016,-0.125 0.022,-0.188 0.073,-0.627 0.211,-1.795 -0.575,-3.209 -0.186,-0.335 -0.389,-0.616 -0.596,-0.857 1.44,-1.14 2.707,-2.438 3.79,-3.855 0.349,0.014 0.645,-0.01 0.87,-0.029 0.062,-0.005 0.125,-0.014 0.189,-0.016 l 0.014,0.008 c 0.028,0.058 0.05,0.117 0.075,0.174 0.25,0.58 0.715,1.66 2.104,2.491 1.015,0.607 1.915,0.77 2.655,0.77 0.517,0 0.955,-0.08 1.298,-0.142 l 0.174,-0.031 c 1.36,-0.235 2.272,-1.529 2.037,-2.89 -0.236,-1.36 -1.526,-2.27 -2.891,-2.037 l -0.21,0.038 c -0.148,0.027 -0.352,0.063 -0.358,0.072 0,0 -0.035,-0.012 -0.143,-0.076 -0.028,-0.058 -0.05,-0.117 -0.075,-0.175 -0.25,-0.58 -0.715,-1.66 -2.104,-2.491 -0.304,-0.182 -0.594,-0.313 -0.874,-0.416 0.784,-1.843 1.319,-3.785 1.581,-5.771 0.311,-0.159 0.56,-0.324 0.743,-0.452 0.052,-0.036 0.102,-0.074 0.155,-0.108 h 0.017 c 0.053,0.036 0.102,0.076 0.151,0.113 0.507,0.377 1.449,1.08 3.066,1.105 0.035,0 0.07,0.001 0.104,0.001 1.94,0 2.997,-0.893 3.633,-1.431 l 0.135,-0.114 c 1.062,-0.883 1.206,-2.459 0.323,-3.521 -0.883,-1.062 -2.457,-1.203 -3.516,-0.32 z M 919.37787,92.989151 c -0.13,-0.031 -0.262,-0.061 -0.4,-0.071 l -0.217,-0.015 c -0.149,-0.01 -0.354,-0.022 -0.363,-0.017 0,0 -0.032,-0.02 -0.119,-0.107 -0.013,-0.063 -0.021,-0.126 -0.03,-0.188 -0.102,-0.623 -0.291,-1.783 -1.435,-2.927 -0.19,-0.19 -0.379,-0.345 -0.566,-0.486 l 5.473,-5.473 c 0.264,0.068 0.499,0.109 0.684,0.139 0.062,0.01 0.124,0.017 0.187,0.03 l 0.013,0.013 c 0.013,0.063 0.02,0.125 0.03,0.187 0.102,0.623 0.29,1.782 1.435,2.927 0.236,0.236 0.472,0.424 0.705,0.593 z m 9.321,-9.32 c -0.131,-0.032 -0.262,-0.061 -0.401,-0.071 l -0.216,-0.015 c -0.15,-0.01 -0.357,-0.023 -0.364,-0.017 0,0 -0.032,-0.021 -0.119,-0.107 -0.013,-0.063 -0.02,-0.126 -0.03,-0.188 -0.101,-0.623 -0.29,-1.783 -1.435,-2.927 -0.189,-0.19 -0.378,-0.345 -0.566,-0.486 l 5.473,-5.473 c 0.265,0.068 0.5,0.11 0.685,0.14 0.062,0.01 0.124,0.017 0.187,0.03 l 0.012,0.012 c 0.013,0.063 0.02,0.126 0.03,0.188 0.102,0.623 0.291,1.782 1.434,2.926 0.236,0.237 0.472,0.425 0.705,0.594 z m 9.32,-9.321 c -0.13,-0.031 -0.262,-0.061 -0.4,-0.071 l -0.217,-0.015 c -0.149,-0.01 -0.355,-0.025 -0.363,-0.017 0,0 -0.032,-0.02 -0.119,-0.107 -0.013,-0.063 -0.021,-0.126 -0.03,-0.188 -0.102,-0.623 -0.291,-1.783 -1.435,-2.927 -0.19,-0.19 -0.379,-0.345 -0.566,-0.486 l 5.474,-5.474 c 0.265,0.068 0.5,0.11 0.685,0.14 0.062,0.01 0.124,0.017 0.187,0.03 l 0.012,0.012 c 0.013,0.063 0.02,0.125 0.03,0.187 0.102,0.623 0.29,1.782 1.435,2.927 0.236,0.236 0.471,0.424 0.705,0.593 z m -51.461,13.435 c -6.62,-6.62 -6.62,-17.393 0,-24.014 l 0.41,-0.41 c 0.001,-10e-4 0.002,-10e-4 0.003,-0.002 10e-4,-0.001 10e-4,-0.002 0.002,-0.003 l 18.634,-18.633 c 0.002,-0.002 0.004,-0.003 0.006,-0.005 0.002,-0.002 0.003,-0.004 0.005,-0.006 l 8.489,-8.489 c 3.31,-3.31 7.658,-4.965 12.006,-4.965 4.348,0 8.697,1.655 12.007,4.965 6.62,6.62 6.62,17.391 0.002,24.012 -10e-4,10e-4 -10e-4,10e-4 -0.002,10e-4 -10e-4,0.001 -10e-4,0.002 -0.002,0.003 l -18.635,18.635 c -0.002,0.002 -0.004,0.003 -0.005,0.004 -0.001,0.001 -0.003,0.004 -0.004,0.005 l -8.902,8.902 c -6.621,6.62 -17.394,6.62 -24.014,0 z m 34.555,34.555999 c -6.62,-6.621 -6.62,-17.393 0,-24.013999 l 27.549,-27.549 c 3.311,-3.31 7.658,-4.965 12.007,-4.965 4.348,0 8.696,1.655 12.007,4.965 3.207,3.207 4.974,7.471 4.974,12.006 0,4.534 -1.766,8.797 -4.971,12.004 -10e-4,10e-4 -0.003,0.002 -0.004,0.003 -0.002,0.002 -0.003,0.004 -0.004,0.005 l -27.544,27.543999 c -6.621,6.62 -17.394,6.621 -24.014,0.001 z m 33.185,31.824 c -2.204,-3.964 -2.731,-8.549 -1.486,-12.911 1.245,-4.362 4.114,-7.977 8.079,-10.18 l 34.053,-18.928 c 3.964,-2.203 8.55003,-2.731 12.91003,-1.486 4.361,1.245 7.977,4.114 10.18,8.079 4.548,8.185 1.591,18.542 -6.593,23.09 l -34.05303,18.928 c -3.965,2.203 -8.55,2.731 -12.91,1.486 -4.361,-1.245 -7.977,-4.113 -10.18,-8.078 z"
     id="path44507" /><path
     fill="#32414b"
     d="m 964.21787,136.75215 c -0.976,-0.977 -2.56,-0.977 -3.535,0 -4.859,4.858 -4.859,12.764 0,17.623 0.488,0.488 1.128,0.732 1.768,0.732 0.64,0 1.28,-0.244 1.768,-0.732 0.977,-0.976 0.977,-2.559 0,-3.535 -2.909,-2.909 -2.909,-7.643 0,-10.552 0.975,-0.977 0.975,-2.56 -0.001,-3.536 z"
     id="path44509" /><path
     fill="#32414b"
     d="m 865.3671,410.74315 c 0.041,-0.05 0.079,-0.103 0.124,-0.151 0.001,0 0.004,0 0.006,-10e-4 0.063,-0.017 0.104,-0.024 0.114,-0.029 0.077,0.029 0.236,0.107 0.356,0.166 l 0.199,0.097 c 1.245,0.598 2.738,0.075 3.336,-1.17 0.599,-1.244 0.075,-2.738 -1.17,-3.336 l -0.162,-0.079 c -0.76,-0.373 -2.03,-0.998 -3.969,-0.478 -1.562,0.419 -2.306,1.328 -2.706,1.817 -0.04,0.049 -0.077,0.099 -0.12,0.146 l -0.017,0.005 c -0.061,-0.02 -0.118,-0.045 -0.176,-0.067 -0.212,-0.08 -0.493,-0.185 -0.834,-0.268 -0.652,-1.659 -1.528,-3.245 -2.599,-4.735 0.271,-0.177 0.548,-0.396 0.825,-0.672 1.144,-1.145 1.333,-2.304 1.435,-2.927 0.01,-0.063 0.017,-0.128 0.031,-0.192 10e-4,-10e-4 0.002,-0.002 0.003,-0.003 0.047,-0.047 0.08,-0.074 0.085,-0.083 0.081,-0.014 0.26,-0.026 0.395,-0.035 l 0.213,-0.015 c 1.377,-0.103 2.41,-1.302 2.308,-2.679 -0.103,-1.376 -1.304,-2.417 -2.679,-2.308 l -0.175,0.012 c -0.847,0.057 -2.263,0.151 -3.683,1.572 -1.143,1.144 -1.332,2.303 -1.434,2.926 -0.01,0.062 -0.017,0.125 -0.03,0.188 l -0.012,0.013 c -0.062,0.013 -0.125,0.02 -0.186,0.029 -0.185,0.03 -0.42,0.072 -0.685,0.14 l -5.473,-5.473 c 0.188,-0.141 0.377,-0.296 0.567,-0.486 1.144,-1.145 1.333,-2.304 1.434,-2.927 0.01,-0.063 0.018,-0.128 0.031,-0.192 10e-4,-0.001 0.002,-0.002 0.004,-0.003 0.047,-0.047 0.079,-0.074 0.085,-0.083 0.081,-0.014 0.259,-0.025 0.393,-0.035 l 0.218,-0.015 c 1.377,-0.104 2.409,-1.305 2.304,-2.682 -0.104,-1.376 -1.307,-2.416 -2.681,-2.305 l -0.179,0.013 c -0.845,0.058 -2.259,0.152 -3.676,1.571 -1.144,1.144 -1.333,2.304 -1.434,2.926 -0.01,0.062 -0.017,0.125 -0.03,0.188 l -0.012,0.012 c -0.063,0.013 -0.125,0.02 -0.187,0.03 -0.185,0.03 -0.42,0.072 -0.685,0.14 l -5.473,-5.473 c 0.188,-0.141 0.377,-0.296 0.566,-0.485 1.145,-1.145 1.333,-2.305 1.435,-2.928 0.011,-0.063 0.018,-0.128 0.031,-0.192 0,0 10e-4,-10e-4 0.002,-0.002 0.047,-0.047 0.081,-0.074 0.086,-0.083 0.081,-0.014 0.26,-0.026 0.395,-0.035 l 0.214,-0.015 c 1.377,-0.103 2.41,-1.302 2.308,-2.679 -0.103,-1.376 -1.306,-2.419 -2.679,-2.308 l -0.176,0.013 c -0.846,0.056 -2.261,0.15 -3.684,1.571 -1.143,1.144 -1.331,2.303 -1.433,2.926 -0.01,0.062 -0.017,0.124 -0.03,0.187 l -0.013,0.013 c -0.062,0.014 -0.125,0.021 -0.187,0.03 -0.184,0.03 -0.42,0.072 -0.684,0.14 l -5.473,-5.473 c 0.188,-0.141 0.377,-0.296 0.567,-0.486 1.144,-1.145 1.333,-2.304 1.435,-2.927 0.01,-0.063 0.017,-0.128 0.031,-0.192 10e-4,-10e-4 0.002,-0.002 0.003,-0.003 0.047,-0.047 0.08,-0.074 0.085,-0.083 0.081,-0.014 0.26,-0.026 0.395,-0.035 l 0.213,-0.015 c 1.377,-0.103 2.41,-1.302 2.308,-2.679 -0.103,-1.377 -1.303,-2.414 -2.679,-2.308 l -0.175,0.013 c -0.847,0.056 -2.263,0.15 -3.683,1.571 -1.143,1.144 -1.332,2.303 -1.434,2.926 -0.01,0.062 -0.017,0.125 -0.03,0.188 l -0.012,0.013 c -0.063,0.013 -0.125,0.02 -0.187,0.029 -0.224,0.037 -0.52,0.086 -0.857,0.186 -1.578,-1.258 -3.3,-2.289 -5.133,-3.06 0.125,-0.264 0.24,-0.553 0.33,-0.887 0.419,-1.563 0.003,-2.662 -0.221,-3.252 -0.023,-0.06 -0.048,-0.118 -0.069,-0.181 10e-4,-10e-4 10e-4,-0.003 0.002,-0.005 0.018,-0.065 0.032,-0.105 0.033,-0.115 0.063,-0.053 0.212,-0.152 0.324,-0.228 l 0.179,-0.121 c 1.141,-0.777 1.435,-2.333 0.657,-3.474 -0.778,-1.142 -2.333,-1.437 -3.474,-0.657 l -0.147,0.099 c -0.704,0.472 -1.882,1.262 -2.401,3.199 -0.42,1.564 -0.004,2.663 0.22,3.254 0.022,0.059 0.047,0.115 0.067,0.177 l -0.004,0.017 c -0.047,0.042 -0.098,0.079 -0.146,0.118 -0.179,0.146 -0.414,0.339 -0.66,0.599 -1.059,-0.155 -2.131,-0.26 -3.221,-0.26 -0.926,0 -1.838,0.077 -2.743,0.189 -0.022,-0.297 -0.068,-0.613 -0.16,-0.956 -0.418,-1.563 -1.329,-2.308 -1.818,-2.707 -0.05,-0.041 -0.102,-0.079 -0.151,-0.123 0,-10e-4 0,-0.003 -10e-4,-0.005 -0.017,-0.063 -0.024,-0.105 -0.029,-0.114 0.028,-0.077 0.107,-0.237 0.166,-0.357 l 0.097,-0.198 c 0.598,-1.245 0.074,-2.738 -1.171,-3.337 -1.244,-0.595 -2.738,-0.073 -3.336,1.171 l -0.079,0.162 c -0.373,0.76 -0.996,2.032 -0.477,3.969 0.419,1.562 1.328,2.306 1.817,2.704 0.049,0.04 0.1,0.077 0.147,0.12 l 0.004,0.018 c -0.02,0.061 -0.045,0.118 -0.067,0.176 -0.08,0.211 -0.183,0.489 -0.266,0.826 -1.854,0.731 -3.597,1.724 -5.203,2.946 -0.169,-0.248 -0.368,-0.5 -0.62,-0.752 -1.144,-1.145 -2.304,-1.334 -2.927,-1.436 -0.063,-0.01 -0.128,-0.017 -0.192,-0.031 -10e-4,-10e-4 -0.002,-0.002 -0.004,-0.004 -0.046,-0.046 -0.073,-0.078 -0.082,-0.084 -0.014,-0.081 -0.026,-0.259 -0.035,-0.393 l -0.015,-0.218 c -0.103,-1.376 -1.297,-2.411 -2.68,-2.306 -1.377,0.104 -2.409,1.304 -2.306,2.681 l 0.013,0.178 c 0.057,0.846 0.151,2.261 1.571,3.679 1.144,1.143 2.303,1.332 2.926,1.434 0.062,0.01 0.125,0.017 0.188,0.03 l 0.013,0.013 c 0.013,0.062 0.02,0.124 0.03,0.186 0.037,0.224 0.086,0.519 0.186,0.857 -1.269,1.595 -2.283,3.326 -3.044,5.14 -0.268,-0.129 -0.563,-0.246 -0.904,-0.338 -1.563,-0.419 -2.661,-0.002 -3.251,0.222 -0.061,0.022 -0.12,0.049 -0.183,0.068 -10e-4,0 -0.003,-10e-4 -0.005,-0.002 -0.064,-0.017 -0.104,-0.031 -0.115,-0.032 -0.052,-0.063 -0.152,-0.212 -0.227,-0.323 l -0.121,-0.18 c -0.778,-1.142 -2.334,-1.437 -3.474,-0.657 -1.141,0.777 -1.435,2.333 -0.657,3.474 l 0.099,0.147 c 0.472,0.704 1.261,1.882 3.2,2.401 1.563,0.42 2.663,0.003 3.254,-0.221 0.059,-0.022 0.116,-0.048 0.177,-0.067 l 0.016,0.004 c 0.042,0.048 0.079,0.098 0.119,0.146 0.148,0.181 0.344,0.42 0.61,0.67 -0.289,1.973 -0.314,3.974 -0.067,5.952 -0.301,0.022 -0.623,0.068 -0.971,0.162 -1.562,0.419 -2.306,1.328 -2.706,1.817 -0.041,0.05 -0.079,0.102 -0.123,0.15 -10e-4,0 -0.003,10e-4 -0.005,10e-4 -0.064,0.018 -0.106,0.024 -0.115,0.029 -0.077,-0.028 -0.237,-0.106 -0.357,-0.166 l -0.197,-0.096 c -1.243,-0.598 -2.738,-0.075 -3.336,1.17 -0.599,1.244 -0.075,2.738 1.17,3.336 l 0.161,0.079 c 0.553,0.271 1.377,0.676 2.532,0.676 0.432,0 0.91,-0.057 1.437,-0.198 1.563,-0.419 2.307,-1.328 2.707,-1.817 0.04,-0.049 0.077,-0.1 0.12,-0.147 l 0.017,-0.004 c 0.061,0.02 0.118,0.045 0.176,0.067 0.212,0.081 0.493,0.185 0.836,0.268 0.72,1.832 1.709,3.577 2.939,5.198 -0.248,0.169 -0.501,0.369 -0.754,0.622 -1.144,1.145 -1.333,2.305 -1.435,2.927 -0.01,0.063 -0.017,0.128 -0.031,0.192 0,10e-4 -10e-4,0.002 -0.002,0.003 -0.047,0.047 -0.08,0.074 -0.085,0.083 -0.081,0.014 -0.259,0.025 -0.394,0.035 l -0.218,0.015 c -1.377,0.104 -2.409,1.305 -2.304,2.682 0.099,1.312 1.195,2.312 2.49,2.312 0.063,0 0.127,-0.002 0.191,-0.007 l 0.179,-0.013 c 0.845,-0.058 2.259,-0.152 3.678,-1.572 1.142,-1.145 1.331,-2.303 1.432,-2.925 0.01,-0.062 0.017,-0.125 0.03,-0.188 l 0.013,-0.014 c 0.062,-0.013 0.125,-0.02 0.186,-0.029 0.185,-0.03 0.42,-0.072 0.685,-0.14 l 5.473,5.473 c -0.188,0.141 -0.377,0.296 -0.567,0.486 -1.145,1.145 -1.333,2.305 -1.435,2.928 -0.011,0.063 -0.018,0.128 -0.031,0.192 0,0 -10e-4,0.001 -0.002,0.002 -0.047,0.047 -0.081,0.074 -0.086,0.083 -0.081,0.014 -0.26,0.026 -0.395,0.035 l -0.214,0.015 c -1.377,0.103 -2.41,1.302 -2.308,2.679 0.098,1.313 1.194,2.314 2.491,2.314 0.062,0 0.125,-0.002 0.188,-0.007 l 0.176,-0.013 c 0.846,-0.056 2.261,-0.15 3.684,-1.571 1.143,-1.144 1.331,-2.303 1.433,-2.926 0.01,-0.062 0.017,-0.124 0.03,-0.187 l 0.013,-0.014 c 0.063,-0.013 0.125,-0.02 0.187,-0.029 0.185,-0.03 0.42,-0.072 0.685,-0.14 l 5.473,5.473 c -0.188,0.141 -0.377,0.296 -0.567,0.486 -1.144,1.145 -1.333,2.304 -1.435,2.927 -0.01,0.063 -0.017,0.128 -0.031,0.192 -10e-4,10e-4 -0.002,0.002 -0.003,0.003 -0.047,0.047 -0.079,0.074 -0.085,0.083 -0.081,0.014 -0.259,0.025 -0.393,0.035 l -0.218,0.015 c -1.377,0.104 -2.409,1.305 -2.304,2.682 0.099,1.312 1.195,2.312 2.49,2.312 0.063,0 0.127,-0.002 0.191,-0.007 l 0.179,-0.013 c 0.845,-0.058 2.259,-0.153 3.677,-1.571 1.143,-1.144 1.332,-2.303 1.434,-2.926 0.01,-0.062 0.017,-0.125 0.03,-0.188 l 0.012,-0.013 c 0.063,-0.013 0.125,-0.02 0.187,-0.029 0.185,-0.03 0.421,-0.072 0.685,-0.14 l 5.473,5.473 c -0.188,0.141 -0.377,0.296 -0.567,0.486 -1.144,1.145 -1.333,2.305 -1.434,2.928 -0.01,0.063 -0.018,0.127 -0.031,0.191 -10e-4,10e-4 -0.002,0.002 -0.003,0.003 -0.047,0.047 -0.08,0.074 -0.085,0.083 -0.081,0.014 -0.259,0.025 -0.394,0.035 l -0.218,0.015 c -1.377,0.104 -2.409,1.305 -2.304,2.682 0.099,1.312 1.195,2.312 2.49,2.312 0.063,0 0.127,-0.002 0.191,-0.007 l 0.179,-0.013 c 0.845,-0.058 2.259,-0.152 3.678,-1.572 1.143,-1.144 1.331,-2.303 1.433,-2.926 0.01,-0.062 0.017,-0.124 0.03,-0.188 l 0.013,-0.013 c 0.062,-0.013 0.125,-0.02 0.186,-0.029 0.247,-0.04 0.58,-0.097 0.961,-0.219 1.452,1.087 3,1.983 4.623,2.664 -0.129,0.268 -0.246,0.564 -0.338,0.905 -0.418,1.562 -0.002,2.66 0.221,3.25 0.023,0.061 0.049,0.119 0.069,0.182 0,0.002 -10e-4,0.003 -0.002,0.005 -0.017,0.065 -0.032,0.105 -0.033,0.115 -0.063,0.053 -0.211,0.152 -0.323,0.228 l -0.18,0.121 c -1.141,0.777 -1.435,2.333 -0.657,3.474 0.484,0.71 1.269,1.092 2.068,1.092 0.485,0 0.975,-0.141 1.406,-0.435 l 0.147,-0.1 c 0.704,-0.471 1.88,-1.261 2.401,-3.199 0.419,-1.563 0.003,-2.663 -0.221,-3.254 -0.022,-0.059 -0.047,-0.115 -0.067,-0.177 l 0.004,-0.015 c 0.048,-0.043 0.098,-0.08 0.146,-0.12 0.181,-0.147 0.42,-0.343 0.67,-0.609 1.065,0.156 2.136,0.259 3.21,0.259 0.916,0 1.83,-0.078 2.741,-0.192 0.022,0.301 0.069,0.622 0.162,0.969 0.418,1.562 1.328,2.306 1.817,2.705 0.05,0.041 0.103,0.08 0.151,0.124 0,0.002 0,0.004 10e-4,0.007 0.017,0.062 0.024,0.104 0.029,0.113 -0.029,0.077 -0.107,0.236 -0.166,0.356 l -0.096,0.196 c -0.599,1.244 -0.077,2.738 1.167,3.337 0.35,0.169 0.719,0.249 1.083,0.249 0.93,0 1.824,-0.521 2.254,-1.416 l 0.078,-0.16 c 0.374,-0.761 1,-2.033 0.479,-3.971 -0.418,-1.563 -1.329,-2.307 -1.817,-2.707 -0.048,-0.039 -0.099,-0.076 -0.147,-0.119 l -0.005,-0.018 c 0.02,-0.061 0.045,-0.117 0.067,-0.176 0.08,-0.212 0.185,-0.492 0.268,-0.834 1.804,-0.709 3.524,-1.68 5.124,-2.884 1.134,1.117 2.279,1.305 2.896,1.406 0.062,0.01 0.124,0.017 0.187,0.03 l 0.013,0.013 c 0.013,0.062 0.02,0.124 0.03,0.186 0.102,0.623 0.29,1.782 1.434,2.927 0.483,0.483 1.111,0.723 1.741,0.723 0.641,0 1.284,-0.249 1.777,-0.741 0.966,-0.966 0.959,-2.544 0.014,-3.523 -0.013,-0.062 -0.02,-0.125 -0.03,-0.188 -0.102,-0.623 -0.29,-1.782 -1.434,-2.926 -1.132,-1.132 -2.277,-1.329 -2.905,-1.432 1.407,-1.694 2.516,-3.55 3.335,-5.502 0.268,0.129 0.563,0.246 0.904,0.337 1.565,0.42 2.661,10e-4 3.251,-0.222 0.06,-0.022 0.119,-0.049 0.181,-0.068 10e-4,0 0.003,0.001 0.005,0.002 0.064,0.017 0.104,0.031 0.114,0.032 0.052,0.062 0.151,0.211 0.226,0.322 l 0.122,0.181 c 0.484,0.71 1.269,1.092 2.068,1.092 0.485,0 0.975,-0.141 1.406,-0.435 1.141,-0.777 1.435,-2.333 0.657,-3.474 l -0.1,-0.148 c -0.472,-0.703 -1.261,-1.881 -3.199,-2.399 -1.562,-0.42 -2.663,-0.004 -3.253,0.22 -0.059,0.022 -0.116,0.048 -0.177,0.067 l -0.017,-0.004 c -0.042,-0.048 -0.079,-0.098 -0.119,-0.146 -0.148,-0.181 -0.343,-0.42 -0.609,-0.669 0.29,-1.975 0.314,-3.978 0.067,-5.958 0.302,-0.021 0.62,-0.062 0.97,-0.156 1.564,-0.415 2.307,-1.324 2.707,-1.814 z m -37.46,16.727 -27.549,-27.549 c -6.62,-6.621 -6.621,-17.394 0,-24.014 3.208,-3.207 7.472,-4.974 12.007,-4.974 4.535,0 8.799,1.767 12.006,4.974 l 27.549,27.549 c 6.62,6.621 6.62,17.393 0,24.014 -6.62,6.62 -17.392,6.62 -24.013,0 z"
     id="path44519" /><path
     fill="#32414b"
     d="m 807.0891,379.10315 c -0.977,-0.977 -2.559,-0.977 -3.536,0 -2.354,2.354 -3.649,5.483 -3.649,8.812 0,3.329 1.296,6.457 3.65,8.811 0.488,0.488 1.128,0.732 1.768,0.732 0.64,0 1.28,-0.244 1.768,-0.732 0.976,-0.977 0.976,-2.56 0,-3.535 -1.409,-1.409 -2.185,-3.283 -2.185,-5.275 0,-1.993 0.776,-3.867 2.186,-5.276 0.974,-0.979 0.974,-2.562 -0.002,-3.537 z"
     id="path44521" /><path
     fill="#32414b"
     d="m 1098.1279,280.76015 c 0.554,0.272 1.379,0.678 2.535,0.678 0.432,0 0.909,-0.057 1.437,-0.198 1.563,-0.418 2.307,-1.329 2.707,-1.817 0.039,-0.048 0.076,-0.099 0.119,-0.147 l 0.018,-0.005 c 0.061,0.02 0.117,0.045 0.176,0.067 0.212,0.08 0.492,0.185 0.834,0.267 0.72,1.832 1.709,3.578 2.939,5.199 -0.249,0.169 -0.502,0.369 -0.755,0.622 -1.144,1.145 -1.332,2.304 -1.434,2.927 -0.01,0.063 -0.017,0.127 -0.031,0.192 0,0 -10e-4,0.001 0,0.002 -0.047,0.047 -0.08,0.074 -0.085,0.083 -0.081,0.014 -0.26,0.026 -0.394,0.035 l -0.217,0.015 c -1.377,0.104 -2.409,1.304 -2.306,2.68 0.099,1.313 1.194,2.313 2.49,2.313 0.063,0 0.127,-0.002 0.19,-0.007 l 0.177,-0.013 c 0.845,-0.057 2.259,-0.152 3.68,-1.571 1.144,-1.145 1.332,-2.304 1.434,-2.927 0.01,-0.062 0.017,-0.124 0.03,-0.187 l 0.012,-0.012 c 0.062,-0.013 0.125,-0.02 0.187,-0.03 0.185,-0.03 0.42,-0.072 0.685,-0.14 l 5.473,5.473 c -0.188,0.141 -0.378,0.296 -0.568,0.486 -1.144,1.144 -1.332,2.304 -1.434,2.927 -0.011,0.063 -0.018,0.128 -0.031,0.192 -10e-4,0 0,0.001 0,0.002 -0.047,0.047 -0.08,0.074 -0.085,0.083 -0.081,0.014 -0.26,0.026 -0.395,0.035 l -0.216,0.015 c -1.377,0.104 -2.41,1.303 -2.307,2.68 0.099,1.313 1.194,2.313 2.49,2.313 0.063,0 0.126,-0.002 0.189,-0.007 l 0.178,-0.013 c 0.845,-0.057 2.26,-0.151 3.681,-1.572 1.143,-1.144 1.331,-2.302 1.433,-2.925 0.011,-0.062 0.018,-0.125 0.03,-0.188 l 0.013,-0.012 c 0.062,-0.013 0.125,-0.02 0.187,-0.03 0.185,-0.03 0.42,-0.072 0.685,-0.14 l 5.473,5.473 c -0.188,0.141 -0.377,0.296 -0.567,0.486 -1.145,1.144 -1.334,2.304 -1.436,2.927 -0.01,0.064 -0.017,0.128 -0.031,0.192 -10e-4,10e-4 0,0.002 0,0.004 -0.047,0.046 -0.079,0.073 -0.085,0.082 -0.081,0.014 -0.259,0.026 -0.393,0.035 l -0.217,0.015 c -1.377,0.104 -2.409,1.304 -2.306,2.68 0.099,1.313 1.194,2.313 2.49,2.313 0.063,0 0.127,-0.002 0.19,-0.007 l 0.177,-0.013 c 0.846,-0.057 2.262,-0.152 3.68,-1.571 1.143,-1.144 1.332,-2.303 1.434,-2.926 0.01,-0.062 0.017,-0.124 0.03,-0.187 l 0.013,-0.013 c 0.062,-0.013 0.125,-0.02 0.187,-0.03 0.185,-0.03 0.42,-0.072 0.685,-0.14 l 5.473,5.473 c -0.188,0.141 -0.377,0.296 -0.566,0.485 -1.145,1.144 -1.334,2.304 -1.436,2.927 -0.01,0.063 -0.017,0.128 -0.031,0.192 -10e-4,0 0,0.002 0,0.003 -0.046,0.046 -0.078,0.073 -0.084,0.082 -0.081,0.014 -0.26,0.026 -0.394,0.035 l -0.217,0.015 c -1.377,0.104 -2.409,1.304 -2.306,2.68 0.099,1.313 1.194,2.313 2.49,2.313 0.063,0 0.127,-0.002 0.19,-0.007 l 0.177,-0.013 c 0.846,-0.057 2.261,-0.152 3.68,-1.571 1.143,-1.144 1.332,-2.303 1.434,-2.926 0.01,-0.062 0.017,-0.124 0.03,-0.187 l 0.013,-0.013 c 0.062,-0.013 0.125,-0.02 0.187,-0.03 0.246,-0.04 0.579,-0.097 0.959,-0.218 1.452,1.087 3,1.983 4.623,2.664 -0.129,0.268 -0.246,0.563 -0.337,0.904 -0.418,1.562 0,2.661 0.221,3.251 0.023,0.061 0.049,0.12 0.069,0.183 0,0.001 -10e-4,0.002 0,0.005 -0.017,0.064 -0.031,0.104 -0.032,0.114 -0.062,0.052 -0.211,0.151 -0.322,0.226 l -0.181,0.122 c -1.141,0.778 -1.436,2.333 -0.657,3.474 0.484,0.71 1.269,1.092 2.067,1.092 0.485,0 0.976,-0.141 1.406,-0.435 l 0.148,-0.1 c 0.703,-0.472 1.881,-1.261 2.4,-3.2 0.418,-1.562 0,-2.661 -0.221,-3.251 -0.022,-0.059 -0.048,-0.116 -0.068,-0.177 v -0.017 c 0.048,-0.042 0.098,-0.079 0.146,-0.119 0.181,-0.148 0.419,-0.343 0.669,-0.609 1.065,0.156 2.136,0.259 3.21,0.259 0.916,0 1.83,-0.078 2.741,-0.191 0.022,0.301 0.068,0.622 0.162,0.97 0.419,1.563 1.328,2.307 1.817,2.707 0.05,0.041 0.102,0.079 0.15,0.123 0,0.001 0,0.003 0,0.005 0.018,0.064 0.024,0.106 0.029,0.116 -0.028,0.077 -0.106,0.237 -0.166,0.357 l -0.096,0.196 c -0.599,1.244 -0.075,2.738 1.169,3.337 0.35,0.168 0.719,0.248 1.082,0.248 0.931,0 1.824,-0.522 2.255,-1.417 l 0.078,-0.16 c 0.373,-0.761 0.998,-2.033 0.479,-3.971 -0.419,-1.562 -1.328,-2.306 -1.817,-2.706 -0.049,-0.04 -0.099,-0.077 -0.146,-0.12 l -0.01,-0.017 c 0.02,-0.061 0.045,-0.118 0.067,-0.176 0.08,-0.212 0.185,-0.493 0.268,-0.835 1.804,-0.709 3.523,-1.68 5.123,-2.884 1.134,1.116 2.278,1.305 2.896,1.406 0.062,0.01 0.124,0.017 0.187,0.03 l 0.014,0.013 c 0.013,0.063 0.02,0.125 0.029,0.187 0.102,0.623 0.291,1.783 1.435,2.926 0.483,0.483 1.111,0.723 1.74,0.723 0.642,0 1.285,-0.249 1.778,-0.742 0.965,-0.966 0.958,-2.544 0.013,-3.523 -0.014,-0.063 -0.021,-0.125 -0.03,-0.187 -0.102,-0.623 -0.291,-1.783 -1.434,-2.926 -1.132,-1.132 -2.278,-1.329 -2.905,-1.431 1.407,-1.694 2.517,-3.55 3.335,-5.503 0.268,0.129 0.563,0.246 0.904,0.337 1.562,0.418 2.662,0.003 3.251,-0.222 0.06,-0.022 0.119,-0.048 0.182,-0.069 10e-4,10e-4 0,10e-4 0,0.002 0.065,0.018 0.105,0.032 0.115,0.033 0.053,0.063 0.152,0.211 0.228,0.323 l 0.121,0.18 c 0.484,0.71 1.269,1.092 2.067,1.092 0.485,0 0.976,-0.141 1.406,-0.435 1.141,-0.778 1.436,-2.333 0.657,-3.474 l -0.1,-0.147 c -0.471,-0.704 -1.261,-1.88 -3.198,-2.401 -1.563,-0.42 -2.663,-0.002 -3.254,0.221 -0.059,0.022 -0.116,0.047 -0.177,0.067 l -0.016,-0.004 c -0.043,-0.047 -0.08,-0.098 -0.119,-0.146 -0.148,-0.181 -0.344,-0.42 -0.609,-0.669 0.289,-1.975 0.314,-3.977 0.067,-5.957 0.303,-0.021 0.62,-0.063 0.969,-0.156 1.563,-0.418 2.307,-1.329 2.707,-1.817 0.04,-0.05 0.078,-0.102 0.123,-0.151 10e-4,0 0,0 0,-10e-4 0.063,-0.017 0.105,-0.024 0.115,-0.029 0.077,0.029 0.236,0.107 0.356,0.166 l 0.196,0.096 c 1.243,0.599 2.737,0.076 3.337,-1.167 0.6,-1.243 0.077,-2.738 -1.167,-3.337 l -0.16,-0.078 c -0.76,-0.374 -2.031,-0.999 -3.972,-0.479 -1.562,0.418 -2.306,1.328 -2.705,1.817 -0.04,0.049 -0.077,0.1 -0.12,0.147 l -0.018,0.004 c -0.061,-0.02 -0.117,-0.044 -0.175,-0.066 -0.213,-0.081 -0.493,-0.186 -0.835,-0.268 -0.652,-1.659 -1.528,-3.244 -2.598,-4.734 0.271,-0.177 0.549,-0.396 0.827,-0.673 1.144,-1.145 1.332,-2.304 1.434,-2.927 0.01,-0.063 0.017,-0.127 0.031,-0.192 0,0 10e-4,-10e-4 0,-0.002 0.047,-0.047 0.08,-0.074 0.085,-0.083 0.081,-0.014 0.26,-0.026 0.394,-0.035 l 0.217,-0.015 c 1.377,-0.104 2.409,-1.304 2.306,-2.68 -0.104,-1.378 -1.322,-2.401 -2.681,-2.306 l -0.177,0.013 c -0.845,0.057 -2.259,0.152 -3.68,1.571 -1.144,1.145 -1.332,2.304 -1.434,2.927 -0.01,0.062 -0.017,0.124 -0.03,0.187 l -0.012,0.012 c -0.062,0.013 -0.125,0.02 -0.187,0.03 -0.185,0.03 -0.42,0.072 -0.685,0.14 l -5.473,-5.473 c 0.188,-0.141 0.377,-0.296 0.567,-0.486 1.144,-1.144 1.332,-2.304 1.434,-2.926 0.011,-0.063 0.018,-0.128 0.031,-0.193 10e-4,0 0,-0.001 0,-0.002 0.047,-0.047 0.08,-0.074 0.086,-0.083 0.081,-0.014 0.259,-0.025 0.394,-0.035 l 0.215,-0.015 c 1.377,-0.103 2.41,-1.302 2.308,-2.679 -0.103,-1.377 -1.299,-2.398 -2.679,-2.308 l -0.176,0.012 c -0.847,0.056 -2.263,0.151 -3.684,1.572 -1.143,1.144 -1.331,2.302 -1.433,2.925 -0.011,0.062 -0.018,0.125 -0.03,0.188 l -0.013,0.012 c -0.062,0.013 -0.125,0.02 -0.187,0.03 -0.185,0.03 -0.42,0.072 -0.684,0.139 l -5.474,-5.473 c 0.188,-0.141 0.377,-0.296 0.566,-0.485 1.145,-1.145 1.334,-2.305 1.436,-2.928 0.01,-0.063 0.017,-0.127 0.03,-0.192 10e-4,0 0,-0.001 0,-0.002 0.047,-0.047 0.08,-0.074 0.085,-0.083 0.081,-0.014 0.26,-0.026 0.395,-0.035 l 0.217,-0.015 c 1.377,-0.104 2.409,-1.304 2.306,-2.68 -0.104,-1.378 -1.325,-2.394 -2.681,-2.306 l -0.177,0.013 c -0.846,0.057 -2.26,0.152 -3.681,1.572 -1.143,1.144 -1.331,2.303 -1.433,2.925 -0.01,0.062 -0.017,0.124 -0.03,0.187 l -0.013,0.013 c -0.062,0.013 -0.125,0.02 -0.187,0.03 -0.184,0.03 -0.42,0.072 -0.684,0.14 l -5.473,-5.473 c 0.188,-0.141 0.377,-0.296 0.567,-0.486 1.145,-1.144 1.334,-2.304 1.436,-2.927 0.01,-0.063 0.017,-0.128 0.031,-0.192 10e-4,-0.001 0,-0.002 0,-0.004 0.046,-0.046 0.078,-0.073 0.084,-0.082 0.081,-0.014 0.259,-0.026 0.393,-0.035 l 0.218,-0.015 c 1.377,-0.104 2.409,-1.304 2.306,-2.68 -0.104,-1.378 -1.321,-2.401 -2.681,-2.306 l -0.178,0.013 c -0.846,0.057 -2.261,0.151 -3.679,1.571 -1.143,1.144 -1.332,2.303 -1.434,2.926 -0.01,0.062 -0.017,0.124 -0.03,0.187 l -0.013,0.013 c -0.062,0.013 -0.124,0.02 -0.186,0.03 -0.224,0.037 -0.52,0.086 -0.857,0.186 -1.595,-1.268 -3.325,-2.283 -5.14,-3.043 0.128,-0.268 0.246,-0.563 0.337,-0.903 0.418,-1.562 0,-2.661 -0.221,-3.251 -0.023,-0.061 -0.049,-0.12 -0.069,-0.183 0,-0.001 10e-4,-0.002 0,-0.005 0.017,-0.064 0.031,-0.104 0.032,-0.115 0.063,-0.052 0.212,-0.151 0.323,-0.227 l 0.179,-0.12 c 1.142,-0.777 1.437,-2.333 0.659,-3.474 -0.779,-1.143 -2.335,-1.435 -3.474,-0.659 l -0.146,0.099 c -0.704,0.472 -1.883,1.261 -2.403,3.202 -0.418,1.562 0,2.661 0.221,3.251 0.022,0.059 0.048,0.116 0.067,0.177 v 0.017 c -0.048,0.042 -0.098,0.08 -0.146,0.119 -0.181,0.148 -0.42,0.343 -0.669,0.609 -1.974,-0.289 -3.974,-0.314 -5.952,-0.068 -0.022,-0.301 -0.069,-0.622 -0.162,-0.97 -0.419,-1.562 -1.328,-2.306 -1.817,-2.706 -0.05,-0.041 -0.102,-0.079 -0.15,-0.123 0,-0.001 0,-0.003 0,-0.005 -0.018,-0.064 -0.024,-0.106 -0.029,-0.115 0.028,-0.077 0.106,-0.237 0.166,-0.357 l 0.096,-0.197 c 0.599,-1.244 0.074,-2.738 -1.17,-3.336 -1.24,-0.598 -2.738,-0.074 -3.336,1.17 l -0.079,0.161 c -0.372,0.76 -0.996,2.032 -0.478,3.969 0.419,1.563 1.328,2.307 1.817,2.707 0.049,0.04 0.1,0.077 0.147,0.12 v 0.017 c -0.02,0.061 -0.045,0.118 -0.067,0.176 -0.08,0.212 -0.185,0.493 -0.268,0.835 -1.832,0.72 -3.578,1.709 -5.199,2.939 -0.169,-0.248 -0.368,-0.501 -0.62,-0.753 -1.145,-1.145 -2.305,-1.333 -2.928,-1.435 -0.063,-0.011 -0.128,-0.018 -0.192,-0.031 0,0 -10e-4,-0.001 0,-0.002 -0.047,-0.047 -0.074,-0.081 -0.083,-0.086 -0.014,-0.081 -0.026,-0.261 -0.035,-0.396 l -0.015,-0.214 c -0.103,-1.377 -1.292,-2.406 -2.679,-2.308 -1.377,0.103 -2.41,1.302 -2.308,2.679 l 0.012,0.176 c 0.057,0.846 0.151,2.261 1.572,3.684 1.144,1.143 2.303,1.331 2.926,1.433 0.062,0.01 0.124,0.017 0.187,0.03 l 0.014,0.013 c 0.013,0.062 0.02,0.125 0.029,0.186 0.036,0.224 0.086,0.519 0.185,0.855 -1.269,1.595 -2.283,3.326 -3.044,5.141 -0.268,-0.129 -0.563,-0.246 -0.904,-0.337 -1.561,-0.418 -2.661,-0.002 -3.251,0.221 -0.061,0.023 -0.119,0.049 -0.182,0.069 0,0 0,-10e-4 -0.01,-0.002 -0.064,-0.017 -0.105,-0.032 -0.115,-0.033 -0.053,-0.063 -0.152,-0.211 -0.227,-0.323 l -0.122,-0.181 c -0.78,-1.142 -2.337,-1.436 -3.475,-0.656 -1.141,0.778 -1.435,2.333 -0.656,3.474 l 0.101,0.148 c 0.471,0.703 1.26,1.879 3.198,2.399 1.562,0.422 2.663,0.003 3.254,-0.221 0.059,-0.022 0.116,-0.047 0.177,-0.067 l 0.016,0.004 c 0.043,0.047 0.08,0.098 0.119,0.146 0.148,0.181 0.344,0.42 0.609,0.669 -0.289,1.974 -0.314,3.974 -0.068,5.952 -0.301,0.022 -0.622,0.068 -0.97,0.161 -1.562,0.418 -2.306,1.328 -2.705,1.817 -0.041,0.05 -0.079,0.102 -0.124,0.151 0,0 0,0 -0.01,0.001 -0.063,0.017 -0.104,0.024 -0.114,0.029 -0.077,-0.028 -0.237,-0.107 -0.358,-0.167 l -0.194,-0.095 c -1.243,-0.6 -2.737,-0.077 -3.337,1.167 -0.6,1.244 -0.077,2.738 1.167,3.337 z m 40.267,-21.229 27.55,27.549 c 6.619,6.622 6.619,17.394 0,24.014 -6.622,6.621 -17.395,6.62 -24.015,0 l -27.549,-27.549 c -6.619,-6.621 -6.619,-17.394 0,-24.013 6.622,-6.621 17.394,-6.621 24.014,-10e-4 z"
     id="path44523" /><path
     fill="#32414b"
     d="m 1117.5779,280.34915 c 0.488,0.488 1.128,0.732 1.768,0.732 0.64,0 1.279,-0.244 1.768,-0.732 0.977,-0.976 0.977,-2.559 0,-3.535 -2.908,-2.909 -2.908,-7.643 0,-10.552 0.977,-0.976 0.977,-2.559 0,-3.536 -0.977,-0.976 -2.559,-0.976 -3.535,0 -4.86,4.86 -4.86,12.765 -10e-4,17.623 z"
     id="path44525" /><path
     fill="#32414b"
     d="m 1007.5087,309.6303 -0.1734,-0.13472 c -0.1176,-0.093 -0.2794,-0.21771 -0.2897,-0.21603 0,0 -0.015,-0.0337 -0.038,-0.15696 0.024,-0.0597 0.054,-0.11614 0.08,-0.17221 0.2647,-0.57361 0.7566,-1.6403 0.4501,-3.2282 -0.067,-0.34869 -0.1642,-0.65297 -0.2748,-0.93057 0.8628,-0.29519 1.7166,-0.62491 2.5493,-1.03 0.9802,-0.47684 1.8973,-1.03978 2.7827,-1.64287 0.335,0.12619 0.6311,0.19783 0.8546,0.25036 0.062,0.0145 0.1223,0.025 0.1834,0.0431 l 0.011,0.0126 c 0.01,0.0636 0.011,0.1258 0.017,0.18848 0.057,0.62944 0.1616,1.79742 1.2265,3.02415 1.3163,1.51481 2.719,1.70985 3.5572,1.82585 l 0.1755,0.0247 c 1.3664,0.20046 2.6356,-0.74507 2.8365,-2.11054 0.1996,-1.3637 -0.7446,-2.63474 -2.1105,-2.83654 l -0.2148,-0.0301 c -0.1483,-0.0213 -0.3528,-0.0486 -0.3618,-0.0419 -4e-4,-9e-4 -0.031,-0.0227 -0.1128,-0.11751 -0.01,-0.0649 -0.011,-0.12713 -0.018,-0.18937 -0.057,-0.62854 -0.1643,-1.79612 -1.223,-3.02144 -0.227,-0.26097 -0.4569,-0.47054 -0.6847,-0.65326 1.4097,-1.60994 2.5811,-3.42865 3.4771,-5.4136 0.3678,0.52056 1.0463,1.46044 2.5541,1.98132 1.53,0.53007 2.6554,0.19167 3.2611,0.0104 0.06,-0.0181 0.1208,-0.0398 0.1831,-0.0557 l 0.01,10e-4 c 1.3055,0.45025 2.729,-0.24225 3.178,-1.54823 0.4502,-1.30328 -0.241,-2.72855 -1.5483,-3.17793 -1.5287,-0.52737 -2.6532,-0.18941 -3.258,-0.009 -0.059,0.0177 -0.1181,0.0385 -0.18,0.0553 l -0.018,-0.007 c -0.04,-0.0496 -0.074,-0.10322 -0.1092,-0.15593 -0.3607,-0.51065 -1.0307,-1.4558 -2.5308,-1.98822 0.3823,-1.96638 0.5035,-3.93695 0.3523,-5.87067 0.2704,-0.22381 0.4767,-0.43982 0.6323,-0.6045 0.043,-0.0456 0.083,-0.0939 0.1299,-0.13768 l 0.016,-0.003 c 0.06,0.0243 0.1152,0.054 0.1722,0.0797 0.5727,0.26518 1.6407,0.75757 3.2286,0.45104 1.972,-0.38108 2.8429,-1.50089 3.3636,-2.17011 l 0.1089,-0.1397 c 0.8548,-1.0842 0.6702,-2.65692 -0.4118,-3.51173 -1.0846,-0.85574 -2.6564,-0.67157 -3.5117,0.41174 l -0.1334,0.17163 c -0.092,0.11841 -0.2172,0.28029 -0.2156,0.2906 0,0 -0.034,0.0144 -0.1569,0.0385 -0.06,-0.0243 -0.1166,-0.0545 -0.1722,-0.0797 -0.5728,-0.26518 -1.6394,-0.75711 -3.2287,-0.45104 -0.3527,0.0682 -0.6619,0.16633 -0.9422,0.27823 -0.6432,-1.88675 -1.5415,-3.67385 -2.6645,-5.32161 0.1298,-0.34118 0.2011,-0.6405 0.255,-0.86801 0.014,-0.0611 0.025,-0.12227 0.043,-0.18334 l 0.014,-0.011 c 0.064,-0.009 0.1258,-0.0111 0.1884,-0.0172 0.6286,-0.0567 1.7988,-0.16336 3.021,-1.2239 1.5175,-1.31761 1.7113,-2.72297 1.8273,-3.56342 l 0.025,-0.17459 c 0.1982,-1.3664 -0.7473,-2.63343 -2.1141,-2.83479 -1.3664,-0.19822 -2.6344,0.74777 -2.8348,2.11414 l -0.03,0.21122 c -0.02,0.14782 -0.048,0.34922 -0.042,0.36181 l 9e-4,-4.3e-4 c -5e-4,10e-4 -0.023,0.0311 -0.1171,0.11366 -0.065,0.008 -0.1262,0.0103 -0.1885,0.0172 -0.6294,0.0571 -1.7987,0.16337 -3.0196,1.22213 -0.2668,0.231 -0.4814,0.4666 -0.6668,0.70028 -1.3224,-1.16155 -2.8062,-2.16116 -4.4184,-2.99267 -0.057,-0.39464 -0.1519,-0.71903 -0.224,-0.95864 -0.017,-0.0606 -0.038,-0.11937 -0.055,-0.18128 l 0.01,-0.016 c 0.051,-0.0401 0.1042,-0.074 0.156,-0.10922 0.5156,-0.36426 1.4764,-1.04077 2.0043,-2.57085 0.6557,-1.89588 0.1225,-3.20896 -0.1959,-3.99375 l -0.067,-0.16665 c -0.5106,-1.28734 -1.9618,-1.91137 -3.246,-1.4034 -1.2837,0.50886 -1.9114,1.96183 -1.4034,3.24601 l 0.082,0.2035 c 0.055,0.1379 0.1342,0.32839 0.1426,0.33429 0,0 0,0.0366 -0.044,0.15382 -0.051,0.0402 -0.1041,0.074 -0.1559,0.10922 -0.5156,0.36426 -1.4765,1.04078 -2.0057,2.57263 -0.087,0.25264 -0.144,0.4904 -0.1885,0.72114 l -7.31577,-2.52729 c -0.0543,-0.26715 -0.11982,-0.49774 -0.17333,-0.67632 -0.0181,-0.0601 -0.039,-0.11895 -0.0557,-0.18085 l 0.007,-0.0178 c 0.0501,-0.0388 0.10366,-0.0727 0.15503,-0.10878 0.51561,-0.36427 1.47514,-1.04124 2.00385,-2.56953 0.65662,-1.89855 0.12216,-3.21432 -0.19757,-3.99957 l -0.0658,-0.16262 c -0.50789,-1.29089 -1.96543,-1.90962 -3.2474,-1.39939 -1.28331,0.50976 -1.90916,1.96409 -1.39939,3.2474 l 0.0797,0.1981 c 0.0566,0.13926 0.13236,0.3315 0.14439,0.33565 -9e-4,4.4e-4 -0.005,0.038 -0.0446,0.15516 -0.051,0.0392 -0.10455,0.0731 -0.15593,0.10922 -0.51604,0.36336 -1.47647,1.04077 -2.00474,2.56996 -0.0877,0.25397 -0.14444,0.49173 -0.18899,0.72247 l -7.31576,-2.52729 c -0.0543,-0.26715 -0.12071,-0.4973 -0.17376,-0.67722 -0.0181,-0.0601 -0.039,-0.11894 -0.0553,-0.17995 l 0.007,-0.0178 c 0.0501,-0.0388 0.10365,-0.0727 0.15503,-0.10878 0.51561,-0.36426 1.47514,-1.04124 2.00521,-2.5713 0.65482,-1.89767 0.1208,-3.21255 -0.19984,-3.99737 l -0.0653,-0.16395 c -0.50254,-1.28904 -1.96499,-1.90872 -3.2474,-1.39939 -1.28331,0.50976 -1.90916,1.96409 -1.39939,3.2474 l 0.0801,0.199 c 0.0562,0.14059 0.13549,0.33109 0.14349,0.33609 0,0 -0.004,0.0375 -0.0433,0.15338 -0.051,0.0393 -0.10455,0.0731 -0.15593,0.10922 -0.5156,0.36426 -1.47604,1.04168 -2.00431,2.57086 -0.0877,0.25397 -0.14443,0.49174 -0.18898,0.72247 l -7.31709,-2.52775 c -0.0543,-0.26714 -0.12072,-0.4973 -0.17377,-0.67722 -0.0181,-0.0601 -0.039,-0.11894 -0.0553,-0.17994 l 0.006,-0.0174 c 0.051,-0.0393 0.10455,-0.0731 0.15593,-0.10922 0.51561,-0.36426 1.47558,-1.04034 2.00475,-2.56996 0.65569,-1.89588 0.12255,-3.20896 -0.19585,-3.99375 l -0.0666,-0.16665 c -0.51197,-1.28556 -1.96273,-1.91093 -3.24557,-1.4025 -1.28375,0.50887 -1.91181,1.96093 -1.40384,3.24512 l 0.0819,0.20259 c 0.0562,0.1406 0.13508,0.32796 0.14305,0.3352 0,0 -0.004,0.0375 -0.0442,0.15382 -0.051,0.0393 -0.10455,0.0731 -0.15593,0.10922 -0.51604,0.36336 -1.47647,1.04077 -2.00564,2.57039 -0.11683,0.33819 -0.186,0.65319 -0.22858,0.94969 -1.99574,-0.39694 -3.99846,-0.52247 -5.96084,-0.36849 -0.22424,-0.27123 -0.44025,-0.47752 -0.60583,-0.63272 -0.0452,-0.0425 -0.0935,-0.0824 -0.13725,-0.12896 l -0.003,-0.0175 c 0.0244,-0.0597 0.0531,-0.11481 0.0788,-0.17178 0.26518,-0.57272 0.75711,-1.6394 0.45014,-3.22821 -0.37887,-1.96973 -1.49912,-2.84151 -2.16746,-3.36042 l -0.14058,-0.11066 c -1.08238,-0.85794 -2.65507,-0.67557 -3.51168,0.40727 -0.85795,1.08239 -0.67782,2.65505 0.40727,3.51169 l 0.1725,0.13515 c 0.11841,0.0925 0.28027,0.21951 0.29148,0.2174 0,0 0.0148,0.035 0.0385,0.15695 -0.0244,0.0597 -0.0536,0.11615 -0.0797,0.17222 -0.26518,0.57271 -0.75711,1.6394 -0.45014,3.2282 0.0686,0.35585 0.17083,0.65975 0.28406,0.9405 -1.88855,0.64407 -3.67832,1.54145 -5.32745,2.66621 -0.34117,-0.12983 -0.64049,-0.20106 -0.868,-0.25497 -0.0616,-0.0145 -0.12227,-0.025 -0.18335,-0.0431 l -0.0106,-0.0126 c -0.009,-0.0645 -0.0116,-0.12669 -0.0172,-0.18847 -0.0571,-0.62944 -0.16066,-1.8001 -1.2261,-3.02326 -1.31631,-1.5148 -2.71897,-1.70984 -3.55718,-1.82585 l -0.17503,-0.026 c -1.36638,-0.20046 -2.63607,0.74417 -2.83744,2.11098 -0.0758,0.51618 0.0117,1.01849 0.22391,1.45462 0.34953,0.71849 1.03601,1.25638 1.88574,1.38235 l 0.21569,0.0296 c 0.14825,0.0213 0.3519,0.049 0.36225,0.0428 0,0 0.0311,0.0227 0.11233,0.11661 0.008,0.064 0.0107,0.12713 0.0176,0.18937 0.0567,0.62854 0.16202,1.79833 1.22212,3.01964 0.23101,0.26683 0.46661,0.48138 0.69851,0.66548 -1.29921,1.47832 -2.4113,3.14695 -3.29134,4.98627 -0.34635,0.0584 -0.6344,0.14293 -0.85201,0.20765 -0.0601,0.0181 -0.11805,0.0385 -0.18039,0.0544 l -0.0174,-0.006 c -0.0401,-0.0505 -0.0736,-0.10322 -0.10879,-0.15504 -0.36426,-0.5156 -1.04033,-1.47557 -2.56952,-2.00384 -1.89677,-0.65526 -3.21075,-0.12168 -3.99554,0.19672 l -0.16575,0.0662 c -1.28331,0.50976 -1.91093,1.96273 -1.40207,3.24648 0.0231,0.0588 0.0493,0.11726 0.0764,0.17301 0.56695,1.16542 1.94564,1.71352 3.16875,1.22859 l 0.2026,-0.0819 c 0.13926,-0.0566 0.32973,-0.13372 0.33386,-0.14351 0,0 0.0366,0.004 0.15292,0.0446 0.0401,0.0505 0.074,0.10412 0.10922,0.15593 0.36469,0.5165 1.04211,1.47694 2.57129,2.00521 0.33685,0.11636 0.65141,0.18463 0.94835,0.22811 -0.39674,1.97786 -0.52675,3.98053 -0.37303,5.9675 -0.26807,0.2216 -0.47256,0.43673 -0.62641,0.60054 -0.0425,0.0451 -0.0829,0.0926 -0.12895,0.13724 l -0.017,0.004 c -0.0597,-0.0244 -0.11481,-0.0531 -0.17222,-0.0797 -0.57271,-0.26518 -1.63983,-0.75801 -3.2264,-0.45102 -1.9702,0.3802 -2.84195,1.49822 -3.36266,2.16744 l -0.11022,0.14147 c -0.61627,0.7791 -0.69502,1.81047 -0.28774,2.64766 0.1588,0.32643 0.39216,0.62325 0.69634,0.86449 1.08285,0.85661 2.65554,0.67424 3.51215,-0.40861 l 0.13472,-0.1734 c 0.0925,-0.11841 0.21861,-0.27983 0.2156,-0.2906 8.9e-4,-4.4e-4 0.0346,-0.0157 0.15785,-0.039 0.0597,0.0243 0.11525,0.054 0.17221,0.0797 0.57272,0.26518 1.63984,0.75801 3.22821,0.45014 0.34778,-0.0669 0.65206,-0.16376 0.92966,-0.27434 0.29475,0.86191 0.62491,1.7166 1.03,2.54929 0.47684,0.98017 1.03978,1.89732 1.64287,2.7827 -0.12618,0.33495 -0.19783,0.63114 -0.24992,0.85554 -0.0141,0.0602 -0.0255,0.12137 -0.0422,0.18291 l -0.0135,0.011 c -0.0636,0.009 -0.1258,0.0111 -0.18848,0.0172 -0.62944,0.0571 -1.79878,0.16336 -3.02325,1.22611 -1.51391,1.31587 -1.70939,2.71763 -1.82539,3.55584 l -0.0261,0.17503 c -0.0763,0.51752 0.0113,1.01983 0.22388,1.45686 0.3491,0.71759 1.03468,1.25592 1.88397,1.38099 1.36637,0.20046 2.63651,-0.74327 2.83875,-2.10828 l 0.0301,-0.2148 c 0.0208,-0.14915 0.0495,-0.35323 0.0442,-0.36402 0,0 0,0 -4.4e-4,-9e-4 0,0 0.0218,-0.0306 0.11661,-0.11233 0.064,-0.008 0.12623,-0.0103 0.18938,-0.0176 0.62854,-0.0567 1.79788,-0.16292 3.01873,-1.22168 0.26231,-0.22659 0.47235,-0.45776 0.65506,-0.68566 1.49608,1.31058 3.1756,2.40848 4.99716,3.27715 0.0579,0.34769 0.14293,0.6344 0.20765,0.85201 0.0181,0.0601 0.039,0.11895 0.0557,0.18085 l -0.006,0.0165 c -0.0496,0.0397 -0.10321,0.0736 -0.15593,0.10922 -0.5147,0.36382 -1.47467,1.0399 -2.00384,2.56952 -0.65662,1.89855 -0.12217,3.21432 0.19757,3.99958 l 0.0662,0.16351 c 0.0231,0.0588 0.0488,0.11637 0.076,0.17212 0.56695,1.16541 1.94698,1.71397 3.17012,1.22681 1.2833,-0.50976 1.90915,-1.96409 1.39939,-3.2474 l -0.0801,-0.199 c -0.0566,-0.13926 -0.13323,-0.3333 -0.14395,-0.33476 4.6e-4,-0.001 0.005,-0.038 0.0451,-0.15425 0.0496,-0.0397 0.10322,-0.0736 0.15593,-0.10922 0.51561,-0.36426 1.47604,-1.04167 2.00477,-2.57219 0.0877,-0.25398 0.14444,-0.49174 0.18899,-0.72248 l 7.31575,2.52729 c 0.0543,0.26715 0.11982,0.49774 0.17333,0.67633 0.0181,0.0601 0.039,0.11894 0.0557,0.18084 l -0.007,0.0178 c -0.0496,0.0397 -0.10322,0.0736 -0.15503,0.10879 -0.51561,0.36426 -1.47468,1.0399 -2.00521,2.57129 -0.65482,1.89768 -0.1208,3.21255 0.19983,3.99737 l 0.0653,0.16395 c 0.0231,0.0588 0.0488,0.11637 0.076,0.17212 0.56695,1.16541 1.94698,1.71397 3.17011,1.22681 1.28331,-0.50976 1.90916,-1.96409 1.39939,-3.2474 l -0.0801,-0.199 c -0.0553,-0.1388 -0.13597,-0.32751 -0.14392,-0.33699 0,0 0.004,-0.0366 0.0441,-0.15158 0.0496,-0.0397 0.10411,-0.074 0.15593,-0.10922 0.5165,-0.3647 1.47693,-1.04211 2.00477,-2.5722 0.0877,-0.25397 0.14444,-0.49173 0.18898,-0.72247 l 7.31576,2.52729 c 0.0548,0.26804 0.12025,0.49864 0.17377,0.67722 0.0181,0.0601 0.039,0.11894 0.0548,0.18128 l -0.006,0.016 c -0.0496,0.0397 -0.10321,0.0736 -0.15593,0.10922 -0.5156,0.36426 -1.47557,1.04034 -2.00431,2.57086 -0.65572,1.89811 -0.1217,3.21299 0.19894,3.99781 l 0.0657,0.16485 c 0.0231,0.0588 0.0488,0.11636 0.076,0.17212 0.56695,1.16541 1.94698,1.71397 3.17011,1.22681 1.28331,-0.50977 1.90916,-1.96409 1.3994,-3.2474 l -0.081,-0.2008 c -0.0571,-0.14016 -0.13598,-0.32752 -0.14351,-0.33386 0,0 0.004,-0.0366 0.0442,-0.15382 0.0505,-0.0401 0.10412,-0.074 0.15593,-0.10922 0.51561,-0.36426 1.47558,-1.04033 2.00431,-2.57085 0.0877,-0.25398 0.14444,-0.49174 0.18899,-0.72248 l 7.31575,2.52729 c 0.0548,0.26805 0.12026,0.49864 0.17421,0.67812 0.0181,0.0601 0.039,0.11895 0.0557,0.18085 l -0.006,0.0165 c -0.0496,0.0397 -0.10412,0.074 -0.15594,0.10922 -0.5156,0.36426 -1.47514,1.04123 -2.00294,2.56908 -0.65614,1.89498 -0.12345,3.20939 0.19495,3.99418 l 0.0666,0.16665 c 0.0235,0.0597 0.0497,0.11817 0.0773,0.17482 0.56652,1.16451 1.94431,1.71305 3.16832,1.22769 1.28374,-0.50887 1.91137,-1.96184 1.4034,-3.24602 l -0.0823,-0.20349 c -0.0553,-0.1388 -0.13376,-0.32526 -0.14217,-0.3334 0,0 0.004,-0.0366 0.0451,-0.15426 0.0496,-0.0397 0.10322,-0.0736 0.15593,-0.10922 0.51561,-0.36426 1.47514,-1.04123 2.00387,-2.57175 0.12745,-0.36893 0.20185,-0.71205 0.24333,-1.03138 1.79407,0.31156 3.60344,0.40548 5.39974,0.26668 0.2216,0.26807 0.4368,0.47257 0.6006,0.62641 0.045,0.0425 0.093,0.0824 0.1372,0.12895 v 0.0184 c -0.024,0.0597 -0.054,0.11525 -0.079,0.17178 -0.2652,0.57271 -0.7571,1.6394 -0.451,3.22417 0.1029,0.53825 0.262,0.99348 0.4515,1.38285 0.5044,1.03682 1.2286,1.60196 1.716,1.97981 l 0.1405,0.11065 c 1.0829,0.85661 2.6556,0.67424 3.5122,-0.4086 0.8566,-1.08285 0.6831,-2.65097 -0.3997,-3.50758 z m -60.18678,-43.9012 c 3.05695,-8.84895 12.74443,-13.56173 21.59427,-10.50522 l 0.54939,0.18979 c 10e-4,4.6e-4 0.002,0.001 0.003,0.002 10e-4,4.6e-4 0.002,3e-5 0.004,4.9e-4 l 24.90671,8.60424 c 0.003,9.2e-4 0.004,0.002 0.006,0.003 10e-4,4.6e-4 0.005,9.5e-4 0.006,0.001 l 11.34991,3.92092 c 4.4249,1.52938 7.8148,4.71436 9.7173,8.62514 1.9026,3.91078 2.316,8.54376 0.7879,12.96913 -1.4809,4.2868 -4.5422,7.74109 -8.6203,9.72498 -4.0789,1.98433 -8.68625,2.26072 -12.97394,0.78024 l -24.91073,-8.60562 c -0.003,-9.3e-4 -0.004,-0.002 -0.006,-0.003 -10e-4,-4.6e-4 -0.005,-9.5e-4 -0.006,-0.001 l -11.90063,-4.11118 c -4.28679,-1.48091 -7.74108,-4.54226 -9.72498,-8.62029 -1.98389,-4.07804 -2.26205,-8.68674 -0.78158,-12.97444 z"
     id="path44527" /><path
     fill="#32414b"
     d="m 968.98723,262.67567 c 0.45115,-1.30595 -0.24091,-2.72855 -1.54687,-3.1797 -3.14659,-1.08702 -6.52635,-0.88404 -9.51991,0.57227 -2.99356,1.45631 -5.24032,3.99054 -6.32777,7.13623 -0.22535,0.65231 -0.16479,1.33456 0.11519,1.91007 0.27997,0.57552 0.77893,1.04339 1.43167,1.26963 1.30506,0.45159 2.72855,-0.24091 3.1788,-1.54643 0.65021,-1.88431 1.99591,-3.40192 3.78808,-4.27378 1.79128,-0.87143 3.81592,-0.99342 5.69933,-0.34278 1.3064,0.45205 2.72989,-0.24045 3.18148,-1.54551 z"
     id="path44529" /><path
     fill="#32414b"
     d="m 886.63225,237.40315 c -1.375,-5.83 -6.518,-9.902 -12.504,-9.902 -0.993,0 -1.99,0.116 -2.962,0.346 -6.9,1.63 -11.187,8.57 -9.557,15.469 l 1.516,6.417 c -2.099,-0.49 -4.54,-0.911 -7.174,-0.911 -5.622,0 -10.417,1.944 -14.252,5.779 -6.605,6.605 -6.254,14.618 -5.113,20.272 -1.823,-0.374 -3.859,-0.659 -6.027,-0.659 -5.622,0 -10.417,1.944 -14.252,5.779 -6.605,6.605 -6.255,14.62 -5.113,20.274 -1.823,-0.374 -3.86,-0.659 -6.028,-0.659 -5.623,0 -10.419,1.944 -14.254,5.779 -4.074,4.074 -8.287,11.571 -5.222,24.151 l 2.276,9.642 c 0.549,2.326 1.73,4.446 3.415,6.132 2.398,2.397 5.711,3.772 9.091,3.772 0.993,0 1.99,-0.116 2.962,-0.346 3.342,-0.789 6.177,-2.833 7.982,-5.754 1.805,-2.922 2.365,-6.371 1.575,-9.714 l -1.516,-6.42 c 2.099,0.49 4.54,0.911 7.175,0.911 5.623,0 10.418,-1.944 14.253,-5.779 6.604,-6.604 6.254,-14.618 5.113,-20.273 1.823,0.374 3.86,0.659 6.027,0.659 5.622,0 10.417,-1.944 14.252,-5.779 6.604,-6.604 6.254,-14.618 5.113,-20.272 1.823,0.374 3.86,0.659 6.027,0.659 5.622,0 10.417,-1.944 14.252,-5.779 4.074,-4.075 8.288,-11.572 5.223,-24.151 z m -6.478,30.259 c -3.321,3.321 -7.132,4.314 -10.716,4.314 -3.322,0 -6.449,-0.853 -8.811,-1.497 -1.14,-0.311 -2.864,-0.782 -3.977,-0.929 0.147,1.112 0.617,2.836 0.929,3.976 1.34,4.911 3.582,13.129 -2.816,19.528 -3.321,3.321 -7.132,4.314 -10.716,4.314 -3.322,0 -6.449,-0.853 -8.811,-1.497 -1.14,-0.312 -2.864,-0.781 -3.977,-0.929 0.147,1.113 0.618,2.837 0.929,3.977 1.34,4.911 3.582,13.129 -2.817,19.527 -3.322,3.322 -7.133,4.315 -10.718,4.315 -3.321,0 -6.449,-0.853 -8.81,-1.497 -1.297,-0.354 -3.35,-0.913 -4.398,-0.969 -0.143,0.518 -0.242,1.82 0.385,4.394 l 2.298,9.73 c 0.997,4.223 -1.618,8.455 -5.841,9.452 -0.607,0.143 -1.215,0.212 -1.813,0.212 -2.111,0 -4.104,-0.857 -5.555,-2.307 -0.996,-0.996 -1.737,-2.273 -2.085,-3.745 l -2.285,-9.677 c -2.019,-8.287 -0.707,-14.825 3.9,-19.432 3.322,-3.322 7.133,-4.315 10.718,-4.315 3.321,0 6.449,0.853 8.81,1.497 1.141,0.311 2.865,0.782 3.978,0.929 -0.147,-1.112 -0.618,-2.837 -0.929,-3.978 -1.34,-4.91 -3.582,-13.129 2.817,-19.527 3.321,-3.321 7.132,-4.314 10.716,-4.314 3.322,0 6.449,0.853 8.811,1.497 1.14,0.312 2.864,0.782 3.977,0.929 -0.147,-1.113 -0.618,-2.837 -0.929,-3.977 -1.34,-4.91 -3.582,-13.129 2.816,-19.527 3.321,-3.321 7.132,-4.314 10.716,-4.314 3.322,0 6.449,0.853 8.811,1.497 1.296,0.354 3.348,0.914 4.397,0.97 0.143,-0.519 0.242,-1.822 -0.384,-4.392 l -2.299,-9.731 c -0.997,-4.223 1.617,-8.455 5.84,-9.453 0.608,-0.143 1.215,-0.212 1.813,-0.212 3.561,0 6.786,2.436 7.641,6.052 l 2.286,9.677 c 2.019,8.287 0.706,14.825 -3.901,19.432 z"
     id="path44531" /><path
     fill="#32414b"
     d="m 799.14356,329.85098 c -0.976,-0.977 -2.56,-0.977 -3.535,0 -2.053,2.053 -2.053,5.394 0,7.446 0.488,0.488 1.128,0.732 1.768,0.732 0.64,0 1.28,-0.244 1.768,-0.732 0.977,-0.976 0.977,-2.559 0,-3.535 -0.104,-0.104 -0.104,-0.272 0,-0.376 0.975,-0.976 0.975,-2.559 -10e-4,-3.535 z"
     id="path44533" /><path
     fill="#32414b"
     d="m 1104.3049,143.05315 c 3.834,3.834 8.629,5.779 14.252,5.779 2.168,0 4.204,-0.285 6.027,-0.659 -1.142,5.656 -1.491,13.669 5.113,20.272 3.834,3.834 8.63,5.779 14.252,5.779 2.169,0 4.205,-0.286 6.029,-0.66 -1.142,5.655 -1.492,13.669 5.114,20.275 4.169,4.169 9.522,6.283 15.91,6.283 2.579,0 5.352,-0.357 8.242,-1.061 l 9.642,-2.276 c 2.326,-0.549 4.447,-1.73 6.132,-3.415 3.178,-3.178 4.458,-7.684 3.426,-12.053 -1.377,-5.83 -6.519,-9.903 -12.505,-9.903 -0.993,0 -1.99,0.116 -2.962,0.346 l -6.425,1.517 c 1.308,-5.677 2.206,-14.361 -4.863,-21.43 -3.834,-3.834 -8.629,-5.779 -14.252,-5.779 -2.168,0 -4.204,0.285 -6.027,0.659 1.141,-5.656 1.491,-13.668 -5.113,-20.272 -3.834,-3.834 -8.629,-5.778 -14.251,-5.779 -2.168,0 -4.204,0.285 -6.027,0.659 1.141,-5.655 1.491,-13.669 -5.113,-20.272 -4.173,-4.169999 -9.526,-6.283999 -15.913,-6.283999 -2.579,0 -5.352,0.357 -8.241,1.061 l -9.643,2.278 c -6.899,1.63 -11.186,8.567999 -9.557,15.467999 1.378,5.831 6.521,9.903 12.506,9.903 0.993,0 1.99,-0.116 2.962,-0.346 l 6.422,-1.517 c -1.308,5.678 -2.205,14.36 4.863,21.427 z m -12.432,-24.774 c -0.608,0.143 -1.215,0.212 -1.813,0.212 -3.56,0 -6.786,-2.437 -7.64,-6.052 -0.997,-4.223 1.617,-8.455 5.84,-9.453 l 9.677,-2.286 c 2.514,-0.616 4.868,-0.920999 7.056,-0.920999 5.02,0 9.166,1.610999 12.375,4.819999 6.398,6.398 4.156,14.617 2.817,19.527 -0.311,1.14 -0.782,2.864 -0.929,3.977 1.113,-0.147 2.836,-0.617 3.976,-0.929 2.362,-0.644 5.489,-1.498 8.812,-1.498 3.584,0 7.396,0.994 10.716,4.314 6.398,6.398 4.156,14.617 2.817,19.527 -0.312,1.14 -0.781,2.864 -0.929,3.977 1.112,-0.147 2.837,-0.618 3.977,-0.929 2.362,-0.644 5.489,-1.498 8.811,-1.497 3.584,0 7.396,0.994 10.717,4.314 6.399,6.399 4.157,14.617 2.817,19.528 -0.354,1.297 -0.913,3.35 -0.969,4.398 0.206,0.057 0.536,0.107 1.021,0.107 0.734,0 1.823,-0.115 3.373,-0.492 l 9.73,-2.298 c 0.607,-0.143 1.215,-0.212 1.813,-0.212 3.56,0 6.786,2.437 7.639,6.053 0.65,2.751 -0.233,5.506 -2.095,7.368 -0.996,0.996 -2.273,1.737 -3.745,2.085 l -9.676,2.285 c -2.516,0.613 -4.87,0.919 -7.058,0.919 -5.02,0 -9.166,-1.611 -12.374,-4.819 -6.399,-6.399 -4.157,-14.618 -2.818,-19.528 0.311,-1.141 0.781,-2.865 0.929,-3.978 -1.113,0.147 -2.837,0.618 -3.978,0.929 -2.362,0.645 -5.489,1.498 -8.811,1.498 -3.584,0 -7.396,-0.994 -10.716,-4.314 -6.398,-6.398 -4.156,-14.617 -2.817,-19.527 0.312,-1.14 0.782,-2.865 0.929,-3.977 -1.113,0.147 -2.837,0.618 -3.977,0.929 -2.362,0.645 -5.489,1.498 -8.811,1.498 -3.584,0 -7.396,-0.994 -10.716,-4.314 -6.398,-6.398 -4.156,-14.617 -2.817,-19.527 0.354,-1.296 0.914,-3.348 0.97,-4.397 -0.206,-0.057 -0.537,-0.107 -1.022,-0.107 -0.734,0 -1.823,0.114 -3.37,0.491 z"
     id="path44535" /><path
     fill="#32414b"
     d="m 1090.0969,105.47915 c -2.84,0 -5.15,2.311 -5.15,5.15 0,1.381 1.119,2.5 2.5,2.5 1.381,0 2.5,-1.119 2.5,-2.5 0,-0.083 0.067,-0.15 0.15,-0.15 1.381,0 2.5,-1.119 2.5,-2.5 0,-1.381 -1.119,-2.5 -2.5,-2.5 z"
     id="path44537" /><path
     fill="#32414b"
     d="m 933.49145,492.16587 c -11.893,0 -21.567,9.675 -21.567,21.567 0,11.892 9.675,21.567 21.567,21.567 11.892,0 21.566,-9.675 21.566,-21.567 0,-11.892 -9.674,-21.567 -21.566,-21.567 z m 0,38.133 c -9.136,0 -16.567,-7.432 -16.567,-16.567 0,-9.135 7.432,-16.567 16.567,-16.567 9.135,0 16.566,7.432 16.566,16.567 0,9.135 -7.431,16.567 -16.566,16.567 z"
     id="path44539" /><path
     fill="#32414b"
     d="m 933.49045,504.62487 c -5.022,0 -9.108,4.086 -9.108,9.108 0,1.381 1.119,2.5 2.5,2.5 1.381,0 2.5,-1.119 2.5,-2.5 0,-2.265 1.843,-4.108 4.108,-4.108 1.381,0 2.5,-1.119 2.5,-2.5 0,-1.381 -1.119,-2.5 -2.5,-2.5 z"
     id="path44541" /><path
     fill="#32414b"
     d="m 974.83232,367.3214 c -11.892,0 -21.567,9.675 -21.567,21.567 0,11.892 9.675,21.567 21.567,21.567 11.892,0 21.567,-9.675 21.567,-21.567 0,-11.892 -9.675,-21.567 -21.567,-21.567 z m 0,38.135 c -9.135,0 -16.567,-7.432 -16.567,-16.567 0,-9.135 7.432,-16.567 16.567,-16.567 9.135,0 16.567,7.432 16.567,16.567 0,9.135 -7.432,16.567 -16.567,16.567 z"
     id="path44543" /><path
     fill="#32414b"
     d="m 974.83232,379.7804 c -5.022,0 -9.108,4.086 -9.108,9.108 0,1.381 1.119,2.5 2.5,2.5 1.381,0 2.5,-1.119 2.5,-2.5 0,-2.266 1.843,-4.108 4.108,-4.108 1.381,0 2.5,-1.119 2.5,-2.5 0,-1.381 -1.119,-2.5 -2.5,-2.5 z"
     id="path44545" /><path
     fill="#32414b"
     d="m 705.91126,242.04387 c -11.892,0 -21.567,9.675 -21.567,21.567 0,11.892 9.675,21.567 21.567,21.567 11.892,0 21.567,-9.675 21.567,-21.567 0,-11.892 -9.675,-21.567 -21.567,-21.567 z m 0,38.135 c -9.135,0 -16.567,-7.432 -16.567,-16.567 0,-9.135 7.432,-16.567 16.567,-16.567 9.135,0 16.567,7.432 16.567,16.567 0,9.135 -7.432,16.567 -16.567,16.567 z"
     id="path44547" /><path
     fill="#32414b"
     d="m 705.91126,254.50287 c -5.022,0 -9.108,4.086 -9.108,9.108 0,1.381 1.119,2.5 2.5,2.5 1.381,0 2.5,-1.119 2.5,-2.5 0,-2.266 1.843,-4.108 4.108,-4.108 1.381,0 2.5,-1.119 2.5,-2.5 0,-1.381 -1.119,-2.5 -2.5,-2.5 z"
     id="path44549" /><path
     fill="#a51e37"
     d="m 916.28268,165.91297 c -1.381,0 -2.5,1.119 -2.5,2.5 0,1.381 1.119,2.5 2.5,2.5 h 13.965 l -37.176,37.175 v -13.965 c 0,-1.381 -1.119,-2.5 -2.5,-2.5 -1.381,0 -2.5,1.119 -2.5,2.5 v 22.5 h 22.5 c 1.381,0 2.5,-1.119 2.5,-2.5 0,-1.381 -1.119,-2.5 -2.5,-2.5 h -13.965 l 37.176,-37.175 v 13.965 c 0,1.381 1.119,2.5 2.5,2.5 1.381,0 2.5,-1.119 2.5,-2.5 v -22.5 z"
     id="path45165" /><path
     fill="#a51e37"
     d="m 1086.2228,277.84576 c -1.0011,-0.95132 -2.5831,-0.911 -3.5344,0.0901 -0.9513,1.00108 -0.911,2.58307 0.09,3.53439 l 10.1231,9.61993 -52.557,1.3389 9.6199,-10.12315 c 0.9513,-1.00108 0.911,-2.58307 -0.09,-3.53439 -1.0011,-0.95131 -2.5831,-0.91099 -3.5344,0.0901 l -15.4993,16.31013 16.3101,15.49934 c 1.0011,0.95132 2.5831,0.911 3.5344,-0.0901 0.9513,-1.00108 0.911,-2.58307 -0.09,-3.53439 l -10.1232,-9.61993 52.5571,-1.3389 -9.62,10.12316 c -0.9513,1.00108 -0.9109,2.58307 0.09,3.53438 1.0011,0.95132 2.5831,0.911 3.5344,-0.0901 l 15.4994,-16.31013 z"
     id="path45165-9" /><path
     fill="#a51e37"
     d="m 907.92182,478.81396 c 0.0802,-1.37868 -0.97201,-2.56074 -2.35071,-2.64088 -1.37867,-0.0802 -2.56072,0.97202 -2.64087,2.3507 l -0.81052,13.94146 -34.95468,-39.27092 13.94145,0.81051 c 1.37868,0.0802 2.56074,-0.97201 2.64088,-2.3507 0.0802,-1.37867 -0.97202,-2.56073 -2.3507,-2.64088 l -22.46208,-1.30587 -1.30586,22.46207 c -0.0802,1.37867 0.97201,2.56073 2.3507,2.64088 1.37867,0.0802 2.56073,-0.97202 2.64088,-2.35071 l 0.81051,-13.94146 34.95468,39.27092 -13.94146,-0.8105 c -1.37868,-0.0802 -2.56073,0.97201 -2.64087,2.35069 -0.0802,1.37868 0.97201,2.56074 2.35069,2.64087 l 22.46208,1.30587 z"
     id="path45165-9-7" /><path
     fill="#a51e37"
     d="m 926.92885,380.95126 c -0.99547,-0.95718 -2.57767,-0.92615 -3.53485,0.0693 -0.95718,0.99548 -0.92615,2.57768 0.0693,3.53486 l 10.06647,9.67923 -52.564,1.03014 9.67923,-10.06647 c 0.95718,-0.99547 0.92615,-2.57767 -0.0693,-3.53485 -0.99547,-0.95718 -2.57767,-0.92615 -3.53485,0.0693 l -15.59489,16.2188 16.2188,15.59489 c 0.99547,0.95718 2.57767,0.92615 3.53485,-0.0693 0.95718,-0.99548 0.92615,-2.57768 -0.0693,-3.53486 l -10.06647,-9.67923 52.564,-1.03014 -9.67923,10.06647 c -0.95718,0.99547 -0.92615,2.57767 0.0693,3.53485 0.99547,0.95718 2.57767,0.92615 3.53485,-0.0693 l 15.59489,-16.2188 z"
     id="path45165-3"
     style="fill:#5c9366;fill-opacity:1" /><path
     fill="#a51e37"
     d="m 795.50367,268.09093 c -0.56544,-1.25993 -2.04451,-1.82266 -3.30444,-1.25724 -1.25993,0.56545 -1.82266,2.04453 -1.25724,3.30445 l 5.71793,12.74075 -49.13761,-18.69575 12.74075,-5.71792 c 1.25993,-0.56545 1.82266,-2.04452 1.25724,-3.30444 -0.56545,-1.25993 -2.04452,-1.82266 -3.30444,-1.25724 l -20.52752,9.21255 9.21256,20.52752 c 0.56544,1.25993 2.04451,1.82266 3.30444,1.25724 1.25993,-0.56545 1.82266,-2.04453 1.25724,-3.30445 l -5.71793,-12.74075 49.13761,18.69575 -12.74075,5.71792 c -1.25993,0.56545 -1.82266,2.04452 -1.25724,3.30444 0.56545,1.25993 2.04452,1.82266 3.30444,1.25724 l 20.52752,-9.21255 z"
     id="path45165-3-6"
     style="fill:#5c9366;fill-opacity:1" /><path
     fill="#a51e37"
     d="m 1091.6454,169.70498 c -0.1722,1.37021 0.7996,2.61988 2.1705,2.79143 l 13.8567,1.73323 -85.2382,66.27838 c -1.0903,0.84771 -1.2867,2.41797 -0.439,3.50818 0.8477,1.09021 2.4179,1.2867 3.5081,0.43898 l 85.2383,-66.27837 -1.734,13.85729 c -0.1722,1.3702 0.7995,2.61987 2.1699,2.79064 0.6848,0.0857 1.3398,-0.11451 1.845,-0.50739 0.5053,-0.39286 0.86,-0.97772 0.9464,-1.66314 l 2.7938,-22.32601 -22.326,-2.79375 c -1.3704,-0.17077 -2.6193,0.80032 -2.7915,2.17053 z"
     id="path45159"
     inkscape:transform-center-x="2.4521536"
     inkscape:transform-center-y="12.260768" /><path
     fill="#a51e37"
     d="m 960.12779,339.78532 c -1.38039,0.0408 -2.46561,1.19322 -2.42412,2.57428 l 0.42003,13.95834 -78.60729,-74.02216 c -1.0054,-0.94675 -2.5872,-0.89923 -3.53395,0.10617 -0.94676,1.0054 -0.89923,2.58719 0.10618,3.53394 l 78.60728,74.02215 -13.95906,0.41934 c -1.38037,0.0408 -2.46561,1.19322 -2.42344,2.57356 0.0207,0.68983 0.31935,1.30622 0.78531,1.74497 0.46594,0.43875 1.09842,0.69919 1.78899,0.67915 l 22.48998,-0.67563 -0.67562,-22.48999 c -0.0422,-1.38034 -1.19391,-2.46489 -2.57429,-2.42412 z"
     id="path45159-2"
     inkscape:transform-center-x="13.704383"
     inkscape:transform-center-y="-0.18835585" /><path
     fill="#a51e37"
     d="m 742.39944,172.73428 c 0.13025,1.0588 0.94195,1.86644 1.8131,1.80408 l 8.80464,-0.63085 -40.91243,61.98129 c -0.52327,0.79274 -0.3735,2.00602 0.33461,2.71061 0.70811,0.7046 1.70588,0.63317 2.22917,-0.15959 l 40.91243,-61.98128 1.32172,10.70693 c 0.13024,1.05879 0.94192,1.86645 1.81258,1.80357 0.43511,-0.0312 0.80273,-0.27403 1.04528,-0.64143 0.24247,-0.36739 0.3595,-0.85868 0.29452,-1.38837 l -2.12942,-17.25034 -14.18638,1.01557 c -0.87064,0.0629 -1.47008,0.971 -1.33982,2.02981 z"
     id="path45159-5"
     inkscape:transform-center-x="-1.6768354"
     inkscape:transform-center-y="10.505103"
     style="stroke-width:0.698328" /><path
     fill="#a51e37"
     d="m 995.84845,427.0145 c 1.18211,-0.38935 1.92216,-1.50152 1.6531,-2.4843 l -2.72005,-9.93271 80.2149,32.75345 c 1.0259,0.41892 2.3804,-0.0278 3.026,-0.99807 0.6457,-0.97025 0.3375,-2.09587 -0.6885,-2.5148 l -80.21488,-32.75345 11.95288,-3.94238 c 1.1821,-0.38931 1.9222,-1.50148 1.6526,-2.48358 -0.1344,-0.49087 -0.4957,-0.85646 -0.9712,-1.05064 -0.4755,-0.1941 -1.0643,-0.21654 -1.6557,-0.022 l -19.25773,6.35164 4.38164,16.00417 c 0.26954,0.98208 1.44482,1.46197 2.62694,1.07263 z"
     id="path45159-5-3"
     inkscape:transform-center-x="-11.702781"
     inkscape:transform-center-y="-6.0552261"
     style="stroke-width:0.814717" /><path
     fill="#a51e37"
     d="m 953.62562,483.52257 c -0.38386,-0.99819 -1.40185,-1.58354 -2.27391,-1.30754 l -8.81379,2.79019 26.94223,-70.43093 c 0.34459,-0.90082 -0.0958,-2.04454 -0.98389,-2.5552 -0.88808,-0.51066 -1.88689,-0.19452 -2.2315,0.7063 l -26.94222,70.43092 -3.88635,-10.093 c -0.38382,-0.99819 -1.40181,-1.58356 -2.27326,-1.30717 -0.43555,0.13794 -0.7522,0.46507 -0.91193,0.88259 -0.15966,0.41747 -0.16222,0.92451 0.0296,1.42393 l 6.26137,16.26123 14.2013,-4.49479 c 0.87144,-0.27636 1.26618,-1.30832 0.88232,-2.30653 z"
     id="path45159-5-3-2"
     inkscape:transform-center-x="6.0322298"
     inkscape:transform-center-y="-9.880327"
     style="fill:#5c9366;fill-opacity:1;stroke-width:0.715364" /><path
     fill="#a51e37"
     d="m 1023.716,335.14062 c 1.2335,0.16598 2.3849,-0.51134 2.572,-1.51296 l 1.8908,-10.12335 57.8576,64.49583 c 0.74,0.82491 2.1536,1.01455 3.1581,0.42364 1.0046,-0.59088 1.2189,-1.73808 0.4789,-2.563 l -57.8576,-64.49584 12.4745,1.67339 c 1.2334,0.16602 2.3849,-0.5113 2.5713,-1.51251 0.093,-0.50029 -0.072,-0.98697 -0.4149,-1.36932 -0.343,-0.38225 -0.8629,-0.65957 -1.4799,-0.74283 l -20.0981,-2.69613 -3.0475,16.31088 c -0.1864,1.0012 0.6613,1.94617 1.8948,2.11216 z"
     id="path45159-5-3-5"
     inkscape:transform-center-x="-10.779291"
     inkscape:transform-center-y="2.159779"
     style="fill:#5c9366;fill-opacity:1;stroke-width:0.814717" /><path
     fill="#a51e37"
     d="m 790.45881,187.15286 c 1.23346,0.16598 2.38491,-0.51134 2.57205,-1.51296 l 1.89077,-10.12335 57.85762,64.49583 c 0.74,0.82491 2.15358,1.01455 3.1581,0.42364 1.00453,-0.59088 1.21887,-1.73808 0.47885,-2.563 l -57.85762,-64.49584 12.47451,1.67339 c 1.23343,0.16602 2.3849,-0.5113 2.57131,-1.51251 0.0934,-0.50029 -0.072,-0.98697 -0.41492,-1.36932 -0.34296,-0.38225 -0.86283,-0.65957 -1.47982,-0.74283 l -20.09812,-2.69613 -3.04748,16.31088 c -0.18641,1.0012 0.6613,1.94617 1.89477,2.11216 z"
     id="path45159-5-3-5-1"
     inkscape:transform-center-x="-10.779291"
     inkscape:transform-center-y="2.159779"
     style="fill:#5c9366;fill-opacity:1;stroke-width:0.814717" /></g><g
   id="g235448"
   transform="matrix(7.0500909,0,0,7.9086617,321.99166,415.31454)"><g
     id="use88053"
     transform="matrix(0.89096906,0,0,1.0389107,-46.596386,-51.607421)"
     style="fill:#ffffff;fill-rule:evenodd;stroke:#000000;stroke-linecap:round;stroke-linejoin:round"><g
       stroke="none"
       fill-rule="nonzero"
       id="g46"
       transform="matrix(0.99974014,0.0191281,-0.02716682,0.99974014,0.5970446,-0.71025127)"><path
         d="m 54.768,6.393 c 0,3.53 -5.992,6.392 -13.385,6.392 C 33.99,12.785 27.997,9.923 27.997,6.393 27.997,2.863 33.99,0 41.383,0 48.776,0 54.768,2.862 54.768,6.393 Z"
         class="D"
         id="path2"
         style="fill:#326586" /><path
         d="m 27.997,6.393 c 0,3.53 5.993,6.392 13.386,6.392 7.393,0 13.385,-2.862 13.385,-6.392 v 8.148 c 0,3.53 -5.992,6.392 -13.385,6.392 -7.393,0 -13.386,-2.862 -13.386,-6.392 z"
         class="E"
         id="path3"
         style="fill:url(#linearGradient47)" /><path
         d="m 31.826,10.867 v 8.148 a 15.71,15.71 0 0 0 1.935,0.779 v -8.148 c -0.695,-0.231 -1.345,-0.491 -1.935,-0.779 z"
         class="B"
         id="path4"
         style="fill:#2a5572" /><path
         id="use4"
         d="m 53.187,6.206 c 0,2.849 -5.285,5.159 -11.804,5.159 -6.519,0 -11.805,-2.31 -11.805,-5.159 0,-2.849 5.286,-5.16 11.805,-5.16 6.519,0 11.804,2.31 11.804,5.16 z"
         style="fill:#86837b" /><path
         d="m 41.383,11.365 c 6.138,0 11.181,-2.048 11.749,-4.666 C 52.563,4.081 47.52,2.033 41.383,2.033 c -6.137,0 -11.182,2.048 -11.75,4.666 0.568,2.618 5.612,4.666 11.75,4.666 z"
         fill="#7b441c"
         id="path5" /><path
         d="m 43.179,5.874 c 0,0.439 -0.805,0.796 -1.796,0.796 -0.991,0 -1.797,-0.357 -1.797,-0.796 0,-0.439 0.804,-0.796 1.797,-0.796 0.993,0 1.796,0.356 1.796,0.796 z"
         fill="#4e4e4e"
         id="path6" /><path
         d="m 26.943,7.14 c -0.306,0.368 -0.292,0.691 -0.292,0.691 v 9.747 c 0,0 0.144,0.402 0.747,0.431 0.603,0.029 0.919,-0.402 0.919,-0.402 V 9.111 c 0,0 -0.05,-0.674 0.094,-1.011 C 28.122,7.498 27.535,7.053 26.943,7.14 Z"
         fill="url(#B)"
         id="path7"
         style="fill:url(#linearGradient48)" /><path
         d="M 32.824,6.641 C 32.738,6.268 32.492,5.662 32.192,5.406 31.892,5.15 31.675,5.119 31.072,5.09 30.469,5.061 27.856,6.468 27.426,6.727 27.21,6.861 27.055,7.003 26.943,7.139 c 0.592,-0.087 1.179,0.358 1.468,0.96 0.007,-0.017 0.012,-0.037 0.02,-0.051 0.172,-0.316 1.845,-1.098 2.154,-1.206 0.65,-0.227 0.761,0.386 0.761,0.386 0,0 0.058,0.316 0.603,0.345 0.545,0.029 0.861,-0.431 0.861,-0.431 0,0 0.1,-0.128 0.014,-0.501 z"
         fill="url(#C)"
         id="path8"
         style="fill:url(#linearGradient49)" /><path
         d="m 29.547572,22.107143 c 0,-3.541 5.97,-6.393 13.385,-6.393 7.415,0 13.385,2.851 13.385,6.393 0,3.542 -5.97,6.393 -13.385,6.393 -7.415,0 -13.385,-2.851 -13.385,-6.393 z"
         class="D"
         id="path9"
         style="fill:#326586" /><path
         d="m 29.547572,22.107143 c 0,3.53 5.993,6.393 13.386,6.393 7.393,0 13.385,-2.862 13.385,-6.393 v 8.149 c 0,3.53 -5.992,6.392 -13.385,6.392 -7.393,0 -13.386,-2.862 -13.386,-6.392 z"
         class="E"
         id="path10"
         style="fill:url(#linearGradient50)" /><path
         d="m 33.376572,26.581143 v 8.148 a 15.69,15.69 0 0 0 1.935,0.779 v -8.148 c -0.695,-0.23 -1.345,-0.491 -1.935,-0.778 z"
         class="B"
         id="path11"
         style="fill:#2a5572" /><path
         id="use11"
         d="m 54.737572,21.920143 c 0,2.849 -5.285,5.159 -11.804,5.159 -6.519,0 -11.805,-2.31 -11.805,-5.159 0,-2.849 5.286,-5.16 11.805,-5.16 6.519,0 11.804,2.31 11.804,5.16 z"
         style="fill:#86837b" /><path
         d="m 42.933572,27.079143 c 6.138,0 11.181,-2.048 11.75,-4.666 -0.569,-2.618 -5.612,-4.666 -11.75,-4.666 -6.138,0 -11.182,2.048 -11.75,4.666 0.568,2.618 5.612,4.666 11.75,4.666 z"
         fill="#5f320c"
         id="path12" /><path
         d="m 44.729572,21.588143 c 0,0.439 -0.805,0.796 -1.797,0.796 -0.992,0 -1.797,-0.357 -1.797,-0.796 0,-0.439 0.804,-0.796 1.797,-0.796 0.993,0 1.797,0.356 1.797,0.796 z"
         fill="#4e4e4e"
         id="path13" /><path
         d="m 42.951572,21.256143 h 9.811 v 1.543 h -0.36 v -1.069 h -1.797 v 1.069 h -0.359 v -1.069 h -1.797 v 1.069 h -0.359 v -1.069 h -1.797 v 1.069 h -0.36 v -1.069 h -2.982 c 0,0 -0.267,0.014 -0.291,-0.221 -0.024,-0.235 0.29,-0.253 0.29,-0.253 z"
         fill="#414241"
         id="path14" /><path
         d="m 15.590637,13.582254 c 0,-2.331 3.133,-4.2079999 7.026,-4.2079999 3.893,0 7.026,1.8769999 7.026,4.2079999 0,2.331 -3.133,4.208 -7.026,4.208 -3.893,0 -7.026,-1.877 -7.026,-4.208 z"
         class="D"
         id="path15"
         style="fill:#326586" /><path
         d="m 15.590637,13.582254 c 0,2.324 3.145,4.208 7.026,4.208 3.881,0 7.026,-1.884 7.026,-4.208 v 12.295 c 0,2.324 -3.146,4.208 -7.026,4.208 -3.88,0 -7.026,-1.884 -7.026,-4.208 z"
         class="E"
         id="path16"
         style="fill:url(#linearGradient51)" /><path
         d="m 17.464637,16.436254 v 12.295 a 7.61,7.61 0 0 0 1.503,0.734 v -12.295 a 7.61,7.61 0 0 1 -1.503,-0.734 z m 0.468,-3.293 c 0,-1.439 2.122,-2.598 4.757,-2.598 2.635,0 4.757,1.159 4.757,2.598 0,1.439 -2.121,2.598 -4.757,2.598 -2.636,0 -4.757,-1.159 -4.757,-2.598 z"
         class="B"
         id="path17"
         style="fill:#2a5572" /><path
         d="m 20.640637,12.365254 c 0,-0.508 0.914,-0.916 2.049,-0.916 1.135,0 2.049,0.409 2.049,0.916 0,0.507 -0.914,0.916 -2.049,0.916 -1.135,0 -2.049,-0.409 -2.049,-0.916 z"
         class="F"
         id="path18"
         style="fill:#86837b" /><path
         d="m 28.711572,22.526143 c -0.306,0.369 -0.292,0.691 -0.292,0.691 v 9.746 c 0,0 0.144,0.402 0.747,0.431 0.603,0.029 0.919,-0.402 0.919,-0.402 v -8.495 c 0,0 -0.05,-0.674 0.094,-1.011 -0.289,-0.602 -0.875,-1.047 -1.468,-0.96 z"
         fill="url(#D)"
         id="path45"
         style="fill:url(#linearGradient52)" /><path
         d="m 34.592572,22.027143 c -0.086,-0.373 -0.332,-0.979 -0.632,-1.235 -0.3,-0.256 -0.517,-0.287 -1.12,-0.316 -0.603,-0.029 -3.216,1.378 -3.646,1.637 a 1.96,1.96 0 0 0 -0.483,0.412 c 0.592,-0.087 1.179,0.358 1.468,0.96 0.007,-0.017 0.012,-0.037 0.021,-0.051 0.172,-0.316 1.844,-1.098 2.153,-1.206 0.65,-0.227 0.761,0.386 0.761,0.386 0,0 0.058,0.316 0.603,0.345 0.545,0.029 0.861,-0.431 0.861,-0.431 0,0 0.1,-0.128 0.014,-0.501 z"
         fill="url(#C)"
         id="path46"
         style="fill:url(#linearGradient53)" /></g></g><path
     style="fill:#326586;fill-opacity:1;stroke:#326586;stroke-width:0.298635;stroke-linecap:butt;stroke-linejoin:miter;stroke-miterlimit:4;stroke-dasharray:0.597268, 0.298635;stroke-dashoffset:0;stroke-opacity:1"
     d="M 11.87594,-49.66416 0.46174878,-46.690925"
     id="path70008-0-8"
     inkscape:transform-center-x="16.41935"
     inkscape:transform-center-y="-2.3403181" /><path
     style="fill:#326586;fill-opacity:1;stroke:#326586;stroke-width:0.298635;stroke-linecap:butt;stroke-linejoin:miter;stroke-miterlimit:4;stroke-dasharray:0.59727, 0.298635;stroke-dashoffset:0;stroke-opacity:1"
     d="M 12.225409,-26.540484 2.8270682,-29.595293"
     id="path70008-0-8-7"
     inkscape:transform-center-x="7.1471261"
     inkscape:transform-center-y="-8.027434" /></g><ellipse
   style="opacity:1;fill:none;fill-opacity:1;stroke:#326586;stroke-width:2.22992;stroke-dasharray:4.45984, 2.22992;stroke-dashoffset:0;stroke-opacity:1;paint-order:fill markers stroke"
   id="path19"
   cx="471.51065"
   cy="112.83429"
   rx="106.57647"
   ry="114.90995" /></g>
	
</g><ellipse
     style="opacity:0.15;fill:#326586;fill-opacity:1;stroke:#326586;stroke-width:2.22992;stroke-dasharray:none;stroke-dashoffset:0;stroke-opacity:1;paint-order:fill markers stroke"
     id="path19-6"
     cx="424.41742"
     cy="118.20171"
     rx="106.57647"
     ry="114.90995" /><text
     xml:space="preserve"
     style="font-style:normal;font-weight:normal;font-size:102.822px;line-height:1.25;font-family:sans-serif;fill:#227dd4;fill-opacity:1;stroke:none;stroke-width:15.5099;stroke-dasharray:none"
     x="306.16727"
     y="378.13837"
     id="text11249-0-4-2"
     transform="scale(0.873255,1.1451409)"
     inkscape:export-filename="./Parts/Data_collection1png.png"
     inkscape:export-xdpi="800"
     inkscape:export-ydpi="800"><tspan
       sodipodi:role="line"
       style="font-style:normal;font-variant:normal;font-weight:normal;font-stretch:normal;font-size:102.822px;font-family:Sans;-inkscape-font-specification:Sans;font-variant-ligatures:normal;font-variant-caps:normal;font-variant-numeric:normal;font-variant-east-asian:normal;text-align:center;text-anchor:middle;fill:#326586;fill-opacity:1;stroke-width:15.5099;stroke-dasharray:none"
       x="306.16724"
       y="378.13837"
       id="tspan4405-5-4">MicW2Graph</tspan></text></g></svg>
