<?xml version="1.0" encoding="UTF-8" standalone="no"?>
<!DOCTYPE svg PUBLIC "-//W3C//DTD SVG 1.1//EN" "http://www.w3.org/Graphics/SVG/1.1/DTD/svg11.dtd">
<svg width="100%" height="100%" viewBox="0 0 622 196" version="1.1" xmlns="http://www.w3.org/2000/svg"
     xml:space="preserve"
     style="fill-rule:evenodd;clip-rule:evenodd;stroke-linejoin:round;stroke-miterlimit:1.41421;">
    <rect x="-37.176" y="-27.701" width="684.264" height="246.884" style="fill:rgb(33,26,87);"/>
    <g id="Artboard1" transform="matrix(0.801572,0,0,0.757396,11.0927,14.7746)">
        <rect x="-13.839" y="-19.507" width="775.703" height="257.552" style="fill:none;"/>
        <g transform="matrix(1.24755,0,0,1.32031,402.238,-7.89465)">
            <path d="M0,88.696L-17.445,88.696L-17.445,26.232C-17.445,25.012 -17.678,23.873 -18.145,22.816C-18.614,21.757 -19.243,20.834 -20.038,20.039C-20.829,19.247 -21.756,18.626 -22.812,18.179C-23.868,17.733 -25.008,17.508 -26.227,17.508C-27.449,17.508 -28.586,17.733 -29.645,18.179C-30.701,18.626 -31.625,19.247 -32.42,20.039C-33.211,20.834 -33.832,21.757 -34.279,22.816C-34.728,23.873 -34.95,25.012 -34.95,26.232L-34.95,88.696L-52.458,88.696L-52.458,26.232C-52.458,25.012 -52.682,23.873 -53.128,22.816C-53.575,21.757 -54.196,20.834 -54.988,20.039C-55.782,19.247 -56.707,18.626 -57.765,18.179C-58.824,17.733 -59.961,17.508 -61.18,17.508C-62.399,17.508 -63.539,17.733 -64.595,18.179C-65.654,18.626 -66.578,19.247 -67.373,20.039C-68.165,20.834 -68.785,21.757 -69.232,22.816C-69.681,23.873 -69.903,25.012 -69.903,26.232L-69.903,88.696L-87.411,88.696L-87.411,26.232C-87.411,22.611 -86.731,19.204 -85.366,16.014C-84.004,12.821 -82.134,10.034 -79.755,7.657C-77.376,5.277 -74.591,3.408 -71.397,2.046C-68.204,0.68 -64.8,0 -61.18,0C-57.928,0 -54.797,0.58 -51.786,1.739C-48.778,2.9 -46.074,4.576 -43.672,6.771C-41.274,4.576 -38.581,2.9 -35.591,1.739C-32.603,0.58 -29.482,0 -26.227,0C-22.61,0 -19.203,0.68 -16.011,2.046C-12.817,3.408 -10.032,5.277 -7.652,7.657C-5.273,10.034 -3.404,12.821 -2.042,16.014C-0.679,19.204 0,22.611 0,26.232L0,88.696Z" style="fill:rgb(250,177,0);fill-rule:nonzero;"/>
        </g>
        <g transform="matrix(-1.24755,0,0,1.32031,984.38,-224.341)">
            <rect x="433.503" y="165.155" width="17.508" height="87.477" style="fill:rgb(250,177,0);"/>
        </g>
        <g transform="matrix(1.24755,0,0,1.32031,529.402,51.4644)">
            <path d="M0,-0.001C0,-3.618 -0.679,-7.015 -2.042,-10.19C-3.404,-13.361 -5.274,-16.134 -7.653,-18.514C-10.032,-20.891 -12.817,-22.773 -16.011,-24.156C-19.204,-25.538 -22.611,-26.231 -26.227,-26.231L-34.951,-26.231L-34.951,26.229L-26.227,26.229C-22.611,26.229 -19.204,25.551 -16.011,24.185C-12.817,22.827 -10.032,20.952 -7.653,18.574C-5.274,16.193 -3.404,13.41 -2.042,10.216C-0.679,7.027 0,3.619 0,-0.001M17.507,-0.001C17.507,4.027 16.99,7.899 15.954,11.62C14.915,15.339 13.441,18.815 11.531,22.05C9.619,25.284 7.341,28.232 4.699,30.898C2.055,33.56 -0.893,35.845 -4.145,37.757C-7.4,39.67 -10.888,41.141 -14.606,42.181C-18.327,43.217 -22.203,43.738 -26.227,43.738L-52.582,43.738L-52.582,-43.739L-26.227,-43.739C-22.203,-43.739 -18.327,-43.219 -14.606,-42.183C-10.888,-41.143 -7.4,-39.672 -4.145,-37.759C-0.893,-35.847 2.055,-33.562 4.699,-30.899C7.341,-28.233 9.619,-25.285 11.531,-22.052C13.441,-18.819 14.915,-15.343 15.954,-11.622C16.99,-7.901 17.507,-4.027 17.507,-0.001" style="fill:rgb(250,177,0);fill-rule:nonzero;"/>
        </g>
        <g transform="matrix(1.24755,0,0,1.32031,629.93,39.8636)">
            <path d="M0,17.571L0,0.062C0,-2.336 -0.458,-4.605 -1.374,-6.739C-2.286,-8.874 -3.539,-10.735 -5.123,-12.322C-6.709,-13.906 -8.571,-15.159 -10.706,-16.071C-12.84,-16.987 -15.106,-17.445 -17.507,-17.445C-19.906,-17.445 -22.172,-16.987 -24.307,-16.071C-26.441,-15.159 -28.303,-13.906 -29.89,-12.322C-31.477,-10.735 -32.726,-8.874 -33.642,-6.739C-34.557,-4.605 -35.015,-2.336 -35.015,0.062L-35.015,17.571L0,17.571ZM17.507,52.524L0,52.524L0,35.015L-35.015,35.015L-35.015,52.524L-52.458,52.524L-52.458,0.062C-52.458,-4.776 -51.542,-9.321 -49.714,-13.569C-47.883,-17.821 -45.393,-21.531 -42.242,-24.702C-39.09,-27.875 -35.388,-30.377 -31.14,-32.206C-26.89,-34.037 -22.347,-34.953 -17.507,-34.953C-12.668,-34.953 -8.125,-34.037 -3.873,-32.206C0.376,-30.377 4.086,-27.875 7.259,-24.702C10.43,-21.531 12.932,-17.821 14.764,-13.569C16.592,-9.321 17.507,-4.776 17.507,0.062L17.507,52.524Z" style="fill:rgb(250,177,0);fill-rule:nonzero;"/>
        </g>
        <g transform="matrix(1.24755,0,0,1.32031,664.329,74.5772)">
            <path d="M0,-35.013C0,-38.631 0.691,-42.03 2.072,-45.201C3.454,-48.371 5.335,-51.148 7.714,-53.526C10.097,-55.906 12.871,-57.784 16.042,-59.169C19.215,-60.554 22.61,-61.245 26.23,-61.245L66.368,-61.245L66.368,-43.737L26.23,-43.737C25.009,-43.737 23.871,-43.512 22.813,-43.066C21.757,-42.619 20.833,-41.995 20.038,-41.204C19.246,-40.411 18.625,-39.484 18.176,-38.429C17.729,-37.372 17.507,-36.232 17.507,-35.013C17.507,-33.794 17.729,-32.643 18.176,-31.565C18.625,-30.49 19.246,-29.555 20.038,-28.762C20.833,-27.967 21.757,-27.347 22.813,-26.901C23.871,-26.454 25.009,-26.23 26.23,-26.23L43.734,-26.23C47.354,-26.23 50.761,-25.55 53.955,-24.185C57.145,-22.824 59.931,-20.954 62.31,-18.573C64.691,-16.195 66.559,-13.409 67.921,-10.215C69.285,-7.026 69.965,-3.619 69.965,0C69.965,3.621 69.285,7.016 67.921,10.187C66.559,13.358 64.691,16.135 62.31,18.513C59.931,20.892 57.145,22.775 53.955,24.156C50.761,25.541 47.354,26.232 43.734,26.232L4.878,26.232L4.878,8.723L43.734,8.723C44.956,8.723 46.094,8.499 47.153,8.05C48.208,7.606 49.135,6.986 49.927,6.191C50.72,5.398 51.34,4.473 51.79,3.416C52.236,2.361 52.458,1.219 52.458,0C52.458,-1.221 52.236,-2.359 51.79,-3.414C51.34,-4.472 50.72,-5.396 49.927,-6.189C49.135,-6.984 48.208,-7.604 47.153,-8.054C46.094,-8.497 44.956,-8.721 43.734,-8.721L26.23,-8.721C22.61,-8.721 19.215,-9.412 16.042,-10.797C12.871,-12.179 10.097,-14.061 7.714,-16.44C5.335,-18.818 3.454,-21.604 2.072,-24.798C0.691,-27.988 0,-31.39 0,-35.013" style="fill:rgb(250,177,0);fill-rule:nonzero;"/>
        </g>
        <g transform="matrix(1.24755,0,0,1.32031,293.188,222.94)">
            <path d="M0,-59.523L32.429,-59.523L32.429,-55.908L4.157,-55.908L4.157,-32.246L28.092,-32.246L28.092,-28.63L4.157,-28.63L4.157,0L0,0L0,-59.523Z" style="fill:white;fill-rule:nonzero;"/>
        </g>
        <g transform="matrix(1.24755,0,0,1.32031,-119.095,38.112)">
            <path d="M370.039,96.632L374.013,96.632L374.013,139.988L370.039,139.988L370.039,96.632ZM372.115,86.154C371.09,86.154 370.23,85.827 369.54,85.163C368.848,84.5 368.5,83.658 368.5,82.633C368.5,81.489 368.848,80.601 369.54,79.967C370.23,79.336 371.09,79.018 372.115,79.018C373.137,79.018 373.997,79.336 374.69,79.967C375.381,80.601 375.729,81.489 375.729,82.633C375.729,83.658 375.381,84.5 374.69,85.163C373.997,85.827 373.137,86.154 372.115,86.154" style="fill:white;fill-rule:nonzero;"/>
        </g>
        <g transform="matrix(1.24755,0,0,1.32031,399.566,197.658)">
            <path d="M0,-5.056C0,-10.656 -1.146,-14.861 -3.435,-17.657C-5.724,-20.458 -8.824,-21.858 -12.739,-21.858C-14.604,-21.858 -16.382,-21.466 -18.066,-20.684C-19.754,-19.901 -21.274,-18.786 -22.628,-17.342C-23.984,-15.893 -25.099,-14.135 -25.973,-12.057C-26.843,-9.979 -27.402,-7.645 -27.64,-5.056L0,-5.056ZM-31.707,-2.435C-31.707,-5.989 -31.18,-9.182 -30.126,-12.012C-29.073,-14.843 -27.657,-17.237 -25.879,-19.19C-24.104,-21.148 -22.086,-22.657 -19.831,-23.71C-17.57,-24.763 -15.238,-25.29 -12.83,-25.29C-7.65,-25.29 -3.583,-23.544 -0.635,-20.049C2.316,-16.556 3.791,-11.62 3.791,-5.239L3.791,-3.613C3.791,-3.07 3.732,-2.526 3.611,-1.987L-27.64,-1.987C-27.582,0.724 -27.161,3.24 -26.377,5.557C-25.596,7.877 -24.495,9.862 -23.08,11.516C-21.667,13.173 -19.965,14.47 -17.977,15.403C-15.991,16.336 -13.761,16.801 -11.293,16.801C-8.943,16.801 -6.822,16.457 -4.923,15.763C-3.028,15.072 -1.267,14.122 0.362,12.92L1.985,15.991C0.238,17.016 -1.674,17.975 -3.75,18.88C-5.828,19.784 -8.462,20.234 -11.655,20.234C-14.424,20.234 -17.03,19.721 -19.468,18.7C-21.906,17.675 -24.029,16.183 -25.834,14.229C-27.64,12.272 -29.073,9.892 -30.126,7.09C-31.18,4.293 -31.707,1.114 -31.707,-2.435" style="fill:white;fill-rule:nonzero;"/>
        </g>
        <g transform="matrix(1.24755,0,0,1.32031,415.114,224.373)">
            <path d="M0,-66.029L3.975,-66.029L3.975,-6.323C3.975,-5.358 4.153,-4.652 4.516,-4.2C4.879,-3.749 5.328,-3.521 5.87,-3.521L6.457,-3.521C6.668,-3.521 7.016,-3.584 7.496,-3.702L8.217,-0.45C7.796,-0.332 7.375,-0.224 6.954,-0.135C6.533,-0.046 5.99,0 5.328,0C1.775,0 0,-2.287 0,-6.864L0,-66.029Z" style="fill:white;fill-rule:nonzero;"/>
        </g>
        <g transform="matrix(1.24755,0,0,1.32031,438.773,167.124)">
            <path d="M0,20.691C0,23.581 0.317,26.198 0.95,28.547C1.585,30.895 2.5,32.898 3.707,34.551C4.909,36.21 6.4,37.504 8.179,38.437C9.951,39.371 11.984,39.838 14.276,39.838C16.683,39.838 18.985,39.22 21.184,37.986C23.38,36.754 25.625,34.991 27.913,32.702L27.913,6.96C25.625,4.912 23.47,3.468 21.457,2.625C19.437,1.781 17.373,1.356 15.267,1.356C13.099,1.356 11.08,1.858 9.215,2.848C7.347,3.843 5.738,5.196 4.382,6.913C3.028,8.63 1.958,10.68 1.177,13.056C0.394,15.436 0,17.98 0,20.691M-4.243,20.691C-4.243,17.196 -3.732,14.035 -2.71,11.203C-1.684,8.375 -0.283,5.964 1.491,3.977C3.266,1.992 5.317,0.469 7.633,-0.584C9.951,-1.637 12.405,-2.164 14.995,-2.164C17.646,-2.164 19.949,-1.698 21.909,-0.763C23.864,0.17 25.925,1.481 28.093,3.166L27.913,-4.782L27.913,-22.669L31.887,-22.669L31.887,42.275L28.455,42.275L28.093,36.675L27.823,36.675C26.077,38.421 24.016,39.972 21.636,41.327C19.254,42.683 16.623,43.36 13.73,43.36C8.251,43.36 3.887,41.416 0.635,37.534C-2.617,33.651 -4.243,28.037 -4.243,20.691" style="fill:white;fill-rule:nonzero;"/>
        </g>
        <g transform="matrix(1.24755,0,0,1.32031,509.88,183.824)">
            <path d="M0,-0.27C0,-4.967 0.632,-9.214 1.898,-13.004C3.159,-16.801 4.951,-20.036 7.271,-22.715C9.588,-25.394 12.359,-27.442 15.58,-28.861C18.802,-30.274 22.399,-30.981 26.376,-30.981C28.361,-30.981 30.167,-30.769 31.793,-30.349C33.419,-29.927 34.894,-29.37 36.219,-28.678C37.544,-27.985 38.733,-27.218 39.787,-26.372C40.839,-25.53 41.76,-24.688 42.541,-23.845L40.103,-21.138C38.536,-22.821 36.671,-24.252 34.503,-25.426C32.335,-26.6 29.626,-27.186 26.376,-27.186C22.941,-27.186 19.872,-26.555 17.162,-25.289C14.451,-24.025 12.149,-22.233 10.25,-19.916C8.354,-17.6 6.895,-14.78 5.872,-11.471C4.847,-8.157 4.336,-4.424 4.336,-0.27C4.336,3.886 4.816,7.631 5.779,10.974C6.743,14.318 8.144,17.163 9.978,19.51C11.817,21.858 14.076,23.682 16.755,24.976C19.434,26.271 22.46,26.917 25.831,26.917C28.542,26.917 31.086,26.527 33.464,25.745C35.843,24.959 37.755,23.847 39.201,22.405L39.201,3.886L24.93,3.886L24.93,0.363L43.176,0.363L43.176,23.936C41.308,25.925 38.884,27.548 35.904,28.816C32.922,30.082 29.446,30.711 25.471,30.711C21.678,30.711 18.215,29.992 15.083,28.542C11.952,27.099 9.273,25.039 7.043,22.359C4.816,19.68 3.086,16.428 1.85,12.602C0.618,8.777 0,4.489 0,-0.27" style="fill:white;fill-rule:nonzero;"/>
        </g>
        <g transform="matrix(1.24755,0,0,1.32031,577.603,224.372)">
            <path d="M0,-44.441L3.975,-44.441L3.975,-17.162C3.975,-12.525 4.741,-9.105 6.277,-6.909C7.813,-4.712 10.324,-3.612 13.821,-3.612C16.407,-3.612 18.755,-4.32 20.864,-5.735C22.974,-7.15 25.29,-9.392 27.82,-12.464L27.82,-44.441L31.794,-44.441L31.794,-1.085L28.452,-1.085L28,-8.306L27.82,-8.306C25.711,-5.78 23.484,-3.764 21.137,-2.258C18.789,-0.753 16.107,0 13.096,0C8.58,0 5.269,-1.354 3.16,-4.064C1.053,-6.775 0,-10.958 0,-16.621L0,-44.441Z" style="fill:white;fill-rule:nonzero;"/>
        </g>
        <g transform="matrix(1.24755,0,0,1.32031,-119.095,38.112)">
            <path d="M603.795,96.632L607.769,96.632L607.769,139.988L603.795,139.988L603.795,96.632ZM605.874,86.154C604.849,86.154 603.993,85.827 603.298,85.163C602.608,84.5 602.262,83.658 602.262,82.633C602.262,81.489 602.608,80.601 603.298,79.967C603.993,79.336 604.849,79.018 605.874,79.018C606.896,79.018 607.755,79.336 608.446,79.967C609.14,80.601 609.485,81.489 609.485,82.633C609.485,83.658 609.14,84.5 608.446,85.163C607.755,85.827 606.896,86.154 605.874,86.154" style="fill:white;fill-rule:nonzero;"/>
        </g>
        <g transform="matrix(1.24755,0,0,1.32031,656.932,167.124)">
            <path d="M0,20.691C0,23.581 0.315,26.198 0.946,28.547C1.578,30.895 2.497,32.898 3.701,34.551C4.906,36.21 6.395,37.504 8.175,38.437C9.947,39.371 11.981,39.838 14.269,39.838C16.679,39.838 18.982,39.22 21.181,37.986C23.379,36.754 25.621,34.991 27.91,32.702L27.91,6.96C25.621,4.912 23.47,3.468 21.45,2.625C19.435,1.781 17.37,1.356 15.264,1.356C13.096,1.356 11.08,1.858 9.211,2.848C7.344,3.843 5.734,5.196 4.381,6.913C3.025,8.63 1.955,10.68 1.171,13.056C0.39,15.436 0,17.98 0,20.691M-4.247,20.691C-4.247,17.196 -3.735,14.035 -2.71,11.203C-1.688,8.375 -0.289,5.964 1.489,3.977C3.266,1.992 5.313,0.469 7.634,-0.584C9.947,-1.637 12.405,-2.164 14.994,-2.164C17.643,-2.164 19.945,-1.698 21.902,-0.763C23.86,0.17 25.921,1.481 28.09,3.166L27.91,-4.782L27.91,-22.669L31.883,-22.669L31.883,42.275L28.452,42.275L28.09,36.675L27.82,36.675C26.07,38.421 24.009,39.972 21.633,41.327C19.251,42.683 16.618,43.36 13.728,43.36C8.249,43.36 3.884,41.416 0.632,37.534C-2.621,33.651 -4.247,28.037 -4.247,20.691" style="fill:white;fill-rule:nonzero;"/>
        </g>
        <g transform="matrix(1.24755,0,0,1.32031,748.657,197.658)">
            <path d="M0,-5.056C0,-10.656 -1.146,-14.861 -3.432,-17.657C-5.724,-20.458 -8.821,-21.858 -12.736,-21.858C-14.604,-21.858 -16.379,-21.466 -18.066,-20.684C-19.751,-19.901 -21.271,-18.786 -22.627,-17.342C-23.981,-15.893 -25.096,-14.135 -25.969,-12.057C-26.843,-9.979 -27.399,-7.645 -27.64,-5.056L0,-5.056ZM-31.704,-2.435C-31.704,-5.989 -31.179,-9.182 -30.126,-12.012C-29.07,-14.843 -27.654,-17.237 -25.879,-19.19C-24.105,-21.148 -22.085,-22.657 -19.828,-23.71C-17.567,-24.763 -15.235,-25.29 -12.826,-25.29C-7.647,-25.29 -3.583,-23.544 -0.632,-20.049C2.316,-16.556 3.793,-11.62 3.793,-5.239L3.793,-3.613C3.793,-3.07 3.732,-2.526 3.615,-1.987L-27.64,-1.987C-27.582,0.724 -27.157,3.24 -26.377,5.557C-25.593,7.877 -24.495,9.862 -23.077,11.516C-21.664,13.173 -19.962,14.47 -17.974,15.403C-15.985,16.336 -13.761,16.801 -11.293,16.801C-8.942,16.801 -6.819,16.457 -4.923,15.763C-3.028,15.072 -1.264,14.122 0.362,12.92L1.985,15.991C0.241,17.016 -1.671,17.975 -3.75,18.88C-5.825,19.784 -8.462,20.234 -11.652,20.234C-14.424,20.234 -17.027,19.721 -19.465,18.7C-21.903,17.675 -24.026,16.183 -25.834,14.229C-27.64,12.272 -29.07,9.892 -30.126,7.09C-31.179,4.293 -31.704,1.114 -31.704,-2.435" style="fill:white;fill-rule:nonzero;"/>
        </g>
        <g transform="matrix(1.24755,0,0,1.32031,175.461,2.65689)">
            <path d="M0,162.135C-4.404,162.135 -7.995,158.552 -7.995,154.139C-7.995,149.737 -4.412,146.145 0,146.145C4.404,146.145 7.987,149.735 7.987,154.139C7.987,158.552 4.404,162.135 0,162.135M-72.58,42.61C-72.58,38.207 -68.997,34.618 -64.593,34.618C-60.184,34.618 -56.6,38.203 -56.6,42.61C-56.6,45.18 -57.845,47.447 -59.731,48.907C-59.819,48.952 -59.923,48.948 -60.012,49.003C-60.218,49.12 -60.338,49.302 -60.513,49.446C-61.709,50.165 -63.091,50.601 -64.588,50.601C-68.997,50.602 -72.58,47.013 -72.58,42.61M-128.847,87.559C-133.252,87.559 -136.836,83.975 -136.836,79.565C-136.836,75.159 -133.252,71.571 -128.847,71.571C-124.439,71.571 -120.854,75.159 -120.854,79.565C-120.856,83.975 -124.442,87.559 -128.847,87.559M-0.672,-0.004C3.738,-0.004 7.324,3.58 7.324,7.989C7.324,12.392 3.741,15.981 -0.672,15.981C-5.075,15.981 -8.658,12.396 -8.658,7.989C-8.658,3.58 -5.075,-0.004 -0.672,-0.004M11.292,142.848L24.952,119.186C25.668,117.948 25.668,116.432 24.952,115.194L9.329,88.146C11.374,85.994 12.648,83.103 12.648,79.9C12.648,73.281 7.282,67.911 0.66,67.911C-4.435,67.911 -8.759,71.107 -10.493,75.593L-40.054,75.593L-52.865,53.389C-50.245,50.542 -48.611,46.776 -48.611,42.61C-48.611,38.385 -50.292,34.565 -52.981,31.703L-40.245,9.637L-16.489,9.637C-15.646,17.661 -8.919,23.969 -0.674,23.969C8.144,23.969 15.309,16.797 15.309,7.989C15.309,-0.823 8.138,-7.992 -0.674,-7.992C-7.232,-7.992 -12.866,-4.014 -15.328,1.651L-42.547,1.651C-43.977,1.651 -45.294,2.412 -46.01,3.648L-59.757,27.463C-61.291,26.972 -62.894,26.632 -64.596,26.632C-71.971,26.632 -78.135,31.681 -79.966,38.49L-95.228,38.49C-96.822,33.739 -101.253,30.292 -106.545,30.292C-113.162,30.292 -118.528,35.662 -118.528,42.279C-118.528,45.31 -117.365,48.048 -115.509,50.154L-123.782,64.489C-125.387,63.949 -127.069,63.589 -128.85,63.589C-137.662,63.589 -144.829,70.756 -144.829,79.567C-144.829,88.382 -137.662,95.545 -128.85,95.545C-120.037,95.545 -112.87,88.378 -112.87,79.567C-112.87,75.433 -114.487,71.691 -117.079,68.852L-108.542,54.066C-107.887,54.175 -107.227,54.271 -106.545,54.271C-101.408,54.271 -97.058,51.019 -95.354,46.484L-80.047,46.484C-78.307,53.423 -72.066,58.596 -64.596,58.596C-62.84,58.596 -61.181,58.242 -59.597,57.72L-47.049,79.462L-63.967,108.766C-64.711,108.618 -65.475,108.537 -66.259,108.537C-72.878,108.537 -78.242,113.9 -78.242,120.526C-78.242,127.143 -72.878,132.506 -66.259,132.506C-59.639,132.506 -54.272,127.143 -54.272,120.526C-54.272,117.707 -55.283,115.149 -56.915,113.101L-40.242,84.22L-10.493,84.22C-8.759,88.702 -4.435,91.892 0.656,91.892C1.179,91.892 1.671,91.805 2.173,91.74L16.875,117.197L4.37,138.854C2.968,138.452 1.525,138.168 -0.006,138.168C-8.821,138.168 -15.982,145.335 -15.982,154.145C-15.982,162.96 -8.816,170.127 -0.006,170.127C8.807,170.127 15.974,162.954 15.974,154.145C15.977,149.737 14.182,145.74 11.292,142.848" style="fill:white;fill-rule:nonzero;"/>
        </g>
    </g>
</svg>
